<?xml version="1.0" encoding="UTF-8"?>
<svg version="1.1" xmlns="http://www.w3.org/2000/svg" width="1024" height="1024">
<path d="M0 0 C3.84640721 2.81708697 7.45388991 5.81527693 11 9 C11.70640625 9.62390625 12.4128125 10.2478125 13.140625 10.890625 C29.10556805 25.84990234 39.95801634 48.11834304 41 70 C42.57201172 70.07347656 42.57201172 70.07347656 44.17578125 70.1484375 C45.55471354 70.22348143 46.9336185 70.29902857 48.3125 70.375 C49.00279297 70.4059375 49.69308594 70.436875 50.40429688 70.46875 C54.06990789 70.68124919 55.87900792 70.91933861 59 73 C58.61377995 78.84431087 57.2258816 81.56742375 53.3125 85.875 C52.31739532 86.9946604 51.32399519 88.11583736 50.33203125 89.23828125 C49.53079834 90.13474365 49.53079834 90.13474365 48.71337891 91.04931641 C45.55382238 94.64647467 42.53480921 98.36012003 39.5 102.0625 C38.90098877 102.78872559 38.30197754 103.51495117 37.68481445 104.26318359 C34.47548537 108.13943948 34.47548537 108.13943948 31.48242188 112.18139648 C29.53560981 114.56970398 27.99119406 114.67662767 25 115 C16.67099264 105.37435231 8.47369605 95.64668318 0.44824219 85.76586914 C-0.80587663 84.23669831 -2.09522756 82.73655121 -3.390625 81.2421875 C-5.6222197 78.1331211 -5.29222875 75.72591654 -5 72 C5.37357631 69.51936219 5.37357631 69.51936219 11 71 C11.59890166 56.69895421 3.67167052 44.27114502 -5.3125 33.75 C-17.58855278 20.64448419 -35.31981709 12.28527492 -53.29785156 11.52758789 C-66.3411552 11.35941202 -78.69858004 14.38889267 -90 21 C-91.3921875 21.7734375 -91.3921875 21.7734375 -92.8125 22.5625 C-95.14430657 24.0417739 -95.14430657 24.0417739 -97.6875 26.1875 C-100 28 -100 28 -102 28 C-102 28.66 -102 29.32 -102 30 C-103.42779824 31.12184147 -104.85584221 32.24337166 -106.28515625 33.36328125 C-108.93228666 35.88981347 -110.60476242 38.94862754 -112.41015625 42.109375 C-114 44 -114 44 -116.3515625 44.9609375 C-119.88818862 45.01310013 -121.42128679 43.87499988 -124.3125 41.875 C-125.74335938 40.90046875 -125.74335938 40.90046875 -127.203125 39.90625 C-128.12609375 39.2771875 -129.0490625 38.648125 -130 38 C-132.13716664 36.75906453 -134.2787889 35.53189637 -136.44140625 34.3359375 C-138.54838371 32.52995682 -139.13373312 30.59449087 -140 28 C-128.44640323 14.02770634 -117.24153035 2.52456013 -101 -6 C-100.41347656 -6.33644531 -99.82695312 -6.67289062 -99.22265625 -7.01953125 C-92.31916324 -10.81116527 -84.56675792 -12.9210632 -77 -15 C-76.31147949 -15.19126465 -75.62295898 -15.3825293 -74.91357422 -15.57958984 C-48.96768166 -22.10843913 -21.80764284 -14.33822167 0 0 Z " fill="#6E6F6E" transform="translate(320,429)"/>
<path d="M0 0 C4.10899679 0.88683384 6.14751125 3.70695356 8.77734375 6.7734375 C9.29361328 7.35158203 9.80988281 7.92972656 10.34179688 8.52539062 C13.24189278 11.7949255 16.00959215 15.15298988 18.71484375 18.5859375 C24.62977668 26.10689258 24.62977668 26.10689258 31.27734375 32.9609375 C33.71484375 35.5859375 33.71484375 35.5859375 34.27734375 38.3359375 C33.71484375 40.5859375 33.71484375 40.5859375 30.71484375 42.5859375 C27.94829051 42.72839647 25.28831069 42.77363195 22.52734375 42.7109375 C21.77775391 42.70191406 21.02816406 42.69289063 20.25585938 42.68359375 C18.40871721 42.66006328 16.56173963 42.62419311 14.71484375 42.5859375 C18.29281983 56.17341161 18.29281983 56.17341161 24.71484375 68.5859375 C25.39546875 69.6584375 26.07609375 70.7309375 26.77734375 71.8359375 C37.15896549 86.57114255 53.20536195 95.91849695 70.71484375 99.5859375 C74.66363797 99.9988487 78.55927537 100.06413728 82.52734375 100.0234375 C83.57905762 100.01513916 84.63077148 100.00684082 85.71435547 99.99829102 C103.15964059 99.62056524 120.08617391 92.84317587 132.71484375 80.5859375 C134.95427941 78.01850368 137.06781401 75.40557113 139.12109375 72.6875 C140.71484375 70.5859375 140.71484375 70.5859375 142.71484375 68.5859375 C147.74204449 68.8222589 150.79039809 70.65982695 154.83984375 73.5234375 C158.78592358 76.33651179 158.78592358 76.33651179 163.0078125 78.6796875 C164.71484375 79.5859375 164.71484375 79.5859375 165.90234375 82.1484375 C165.60543325 87.59179663 162.20168587 90.60302918 158.71484375 94.5859375 C157.91046875 95.6171875 157.10609375 96.6484375 156.27734375 97.7109375 C139.04392882 117.0459884 112.98428931 128.10307311 87.4296875 129.8046875 C70.36896669 130.27478773 52.72104052 126.70556955 37.71484375 118.5859375 C36.85246094 118.16699219 35.99007812 117.74804688 35.1015625 117.31640625 C23.54141072 111.51123597 13.74649742 102.66822615 5.71484375 92.5859375 C5.02648437 91.72226562 4.338125 90.85859375 3.62890625 89.96875 C-1.03731267 83.84542182 -4.44780821 77.73033904 -7.28515625 70.5859375 C-7.64351562 69.72484375 -8.001875 68.86375 -8.37109375 67.9765625 C-11.40792036 60.25891293 -14.28515625 50.93937098 -14.28515625 42.5859375 C-15.33316406 42.60914063 -16.38117188 42.63234375 -17.4609375 42.65625 C-18.83983662 42.67501053 -20.21874345 42.69321043 -21.59765625 42.7109375 C-22.28794922 42.72769531 -22.97824219 42.74445312 -23.68945312 42.76171875 C-27.45651021 42.79811544 -29.06947329 42.72972614 -32.28515625 40.5859375 C-30.96956633 35.59858814 -28.73290505 32.30287919 -25.34765625 28.5234375 C-24.35529795 27.38296109 -23.36311562 26.24233155 -22.37109375 25.1015625 C-21.8615918 24.52212891 -21.35208984 23.94269531 -20.82714844 23.34570312 C-18.34563022 20.5137235 -15.90830858 17.64485477 -13.47265625 14.7734375 C-13.01109131 14.23428711 -12.54952637 13.69513672 -12.07397461 13.13964844 C-9.01866699 9.54568992 -6.23928084 5.85287435 -3.69921875 1.87890625 C-2.28515625 0.5859375 -2.28515625 0.5859375 0 0 Z " fill="#6D6E6E" transform="translate(181.28515625,478.4140625)"/>
<path d="M0 0 C9.10959165 -0.02312545 18.21917326 -0.04091612 27.3287878 -0.05181217 C31.55831371 -0.05704056 35.7878196 -0.0641374 40.01733398 -0.07543945 C44.09568543 -0.08626991 48.17401757 -0.09227717 52.25238228 -0.09487724 C53.81177639 -0.09673121 55.3711694 -0.10035127 56.93055534 -0.10573006 C59.10729162 -0.11294262 61.28394714 -0.11399085 63.46069336 -0.11352539 C65.32267616 -0.11685631 65.32267616 -0.11685631 67.22227478 -0.12025452 C70 0 70 0 71 1 C71.39943176 3.52195967 71.75079848 6.02963656 72.0625 8.5625 C72.19881836 9.62887695 72.19881836 9.62887695 72.33789062 10.71679688 C72.56239503 12.47738403 72.78168397 14.23863478 73 16 C74.25296875 16.04898437 75.5059375 16.09796875 76.796875 16.1484375 C78.44793821 16.22348583 80.09897881 16.29903277 81.75 16.375 C82.9875 16.42140625 82.9875 16.42140625 84.25 16.46875 C85.04921875 16.50742187 85.8484375 16.54609375 86.671875 16.5859375 C87.4050293 16.6173584 88.13818359 16.6487793 88.89355469 16.68115234 C91 17 91 17 93.12133789 18.078125 C93.74129639 18.38234375 94.36125488 18.6865625 95 19 C97.45170853 18.17795135 97.45170853 18.17795135 100 17 C101.92903132 16.7240522 103.8689032 16.51550097 105.8125 16.375 C106.78832031 16.30023438 107.76414062 16.22546875 108.76953125 16.1484375 C109.87361328 16.07496094 109.87361328 16.07496094 111 16 C113.28288174 22.27792478 113.45084429 28.3526679 113 35 C110.82975971 37.17024029 105.52646302 36.73284103 102.45898438 36.98632812 C100.18593095 37.19508248 100.18593095 37.19508248 97 38 C91.89679479 45.90893416 92.79847054 56.53193895 93 65.5 C93.0508257 67.82273432 93.09295766 70.14568064 93.125 72.46875 C93.14820313 73.48388672 93.17140625 74.49902344 93.1953125 75.54492188 C93 78 93 78 91 80 C89.15234375 80.25878906 89.15234375 80.25878906 86.9375 80.265625 C85.74253906 80.26949219 85.74253906 80.26949219 84.5234375 80.2734375 C83.69070313 80.26570312 82.85796875 80.25796875 82 80.25 C80.75089844 80.26160156 80.75089844 80.26160156 79.4765625 80.2734375 C78.67992187 80.27085937 77.88328125 80.26828125 77.0625 80.265625 C76.33160156 80.26336914 75.60070312 80.26111328 74.84765625 80.25878906 C73 80 73 80 71 78 C70.78881836 75.35571289 70.78881836 75.35571289 70.83984375 71.97265625 C70.85144531 70.71718994 70.86304688 69.46172363 70.875 68.16821289 C70.8853125 67.49839386 70.895625 66.82857483 70.90625 66.13845825 C70.95900185 62.63411763 70.97856628 59.12967002 70.99609375 55.625 C71.00003143 54.91009903 71.00396912 54.19519806 71.00802612 53.45863342 C71.04461733 42.29399637 70.48227972 31.15271844 70 20 C62.08 20 54.16 20 46 20 C46.03552979 21.78204834 46.07105957 23.56409668 46.10766602 25.40014648 C46.22361745 31.27539571 46.33489954 37.15072329 46.4429636 43.02612209 C46.50868172 46.58982026 46.57629855 50.15346168 46.64819336 53.71704102 C46.73068566 57.80996634 46.80502956 61.90300379 46.87890625 65.99609375 C46.90594131 67.28148544 46.93297638 68.56687714 46.96083069 69.89122009 C46.98092697 71.07236893 47.00102325 72.25351776 47.02172852 73.47045898 C47.04171402 74.51636703 47.06169952 75.56227509 47.08229065 76.63987732 C47 79 47 79 46 80 C42.52866703 80.27834768 39.04367496 80.23176202 35.5625 80.25 C34.58216797 80.270625 33.60183594 80.29125 32.59179688 80.3125 C31.65529297 80.31765625 30.71878906 80.3228125 29.75390625 80.328125 C28.89095947 80.3374707 28.0280127 80.34681641 27.13891602 80.35644531 C26.43307373 80.23881836 25.72723145 80.12119141 25 80 C22.71541501 76.57312252 22.75548548 75.36059689 22.77294922 71.33520508 C22.77310028 70.17422806 22.77325134 69.01325104 22.77340698 67.8170929 C22.78372955 66.56389755 22.79405212 65.31070221 22.8046875 64.01953125 C22.8075174 62.73640549 22.81034729 61.45327972 22.81326294 60.13127136 C22.82089203 56.72323798 22.84053413 53.31537559 22.8626709 49.90740967 C22.88314503 46.42853102 22.892268 42.94962468 22.90234375 39.47070312 C22.92378084 32.64705817 22.95895701 25.8235549 23 19 C15.41 19 7.82 19 0 19 C-1.51714839 15.96570323 -1.14363916 12.82398333 -1.125 9.5 C-1.12886719 8.81035156 -1.13273437 8.12070312 -1.13671875 7.41015625 C-1.12666646 2.25333293 -1.12666646 2.25333293 0 0 Z " fill="#6B6D6C" transform="translate(392,464)"/>
<path d="M0 0 C0.78052734 -0.00773437 1.56105469 -0.01546875 2.36523438 -0.0234375 C8.18414502 -0.00335498 8.18414502 -0.00335498 10.4375 2.25 C10.75634766 4.49658203 10.75634766 4.49658203 10.8515625 7.2578125 C10.89023437 8.24394531 10.92890625 9.23007812 10.96875 10.24609375 C10.9996875 11.27863281 11.030625 12.31117188 11.0625 13.375 C11.10117187 14.41527344 11.13984375 15.45554687 11.1796875 16.52734375 C11.27414766 19.10138311 11.35971214 21.67541155 11.4375 24.25 C12.10064209 24.03778809 12.76378418 23.82557617 13.44702148 23.60693359 C14.32946533 23.33187988 15.21190918 23.05682617 16.12109375 22.7734375 C16.99048584 22.49935059 17.85987793 22.22526367 18.75561523 21.94287109 C26.19275998 20.02146765 33.56955868 20.85812706 40.4375 24.25 C49.8777379 30.09027811 54.11767144 36.8840076 56.95703125 47.44140625 C58.51062084 56.52295843 56.65267363 66.17684793 51.70703125 73.98046875 C46.58197588 80.08757066 40.68626981 84.28098233 32.875 86.0625 C26.00251006 86.43736309 20.32918233 86.19729576 13.63671875 84.58984375 C11.26849023 84.05222649 11.26849023 84.05222649 8.4375 85.25 C5.59379549 85.34668595 2.7804273 85.38923837 -0.0625 85.375 C-0.83464844 85.37886719 -1.60679687 85.38273438 -2.40234375 85.38671875 C-5.70753737 85.38099051 -8.40627498 85.30207501 -11.5625 84.25 C-11.6319077 73.59311115 -11.68526419 62.93627578 -11.71793652 52.27920723 C-11.73361495 47.33107667 -11.75489277 42.38310036 -11.78881836 37.43505859 C-11.8213344 32.66291659 -11.8393366 27.89092325 -11.84713173 23.11867905 C-11.85268923 21.29493747 -11.86354119 19.47120433 -11.87969017 17.64752579 C-11.90136167 15.0996343 -11.90447129 12.55236285 -11.90307617 10.00439453 C-11.91925491 8.86503952 -11.91925491 8.86503952 -11.9357605 7.70266724 C-11.92326355 5.60354614 -11.92326355 5.60354614 -11.5625 2.25 C-7.69957629 -0.32528248 -4.47303122 -0.04454471 0 0 Z M13.4375 43.25 C10.41953171 46.99644339 9.68392146 50.48585171 9.4375 55.25 C10.21232381 60.77061965 12.12405729 63.80554837 16.4453125 67.140625 C19.84696764 69.03488002 22.69309098 69.24655504 26.4375 68.25 C30.40268163 66.233029 33.00736564 64.54040307 34.4375 60.25 C34.55630354 58.4403182 34.6126965 56.62603553 34.625 54.8125 C34.64626953 53.39130859 34.64626953 53.39130859 34.66796875 51.94140625 C34.43364518 49.20498356 33.83451383 47.58571877 32.4375 45.25 C31.7775 45.25 31.1175 45.25 30.4375 45.25 C30.07398438 44.28900391 30.07398438 44.28900391 29.703125 43.30859375 C28.63417117 41.09313341 28.63417117 41.09313341 26.484375 40.53515625 C21.28350941 40.03099071 17.86909184 40.08457726 13.4375 43.25 Z " fill="#6A6C6B" transform="translate(718.5625,458.75)"/>
<path d="M0 0 C1.27423828 -0.00193359 1.27423828 -0.00193359 2.57421875 -0.00390625 C3.91419922 0.00189453 3.91419922 0.00189453 5.28125 0.0078125 C6.17457031 0.00394531 7.06789063 0.00007813 7.98828125 -0.00390625 C8.83777344 -0.00261719 9.68726563 -0.00132812 10.5625 0 C11.34689453 0.00112793 12.13128906 0.00225586 12.93945312 0.00341797 C14.78125 0.1328125 14.78125 0.1328125 15.78125 1.1328125 C16.01778523 3.65877509 16.20298692 6.16388457 16.34375 8.6953125 C16.38693359 9.40623047 16.43011719 10.11714844 16.47460938 10.84960938 C16.58096777 12.61043162 16.68163846 14.3715957 16.78125 16.1328125 C18.17150391 16.11541016 18.17150391 16.11541016 19.58984375 16.09765625 C20.78738281 16.08863281 21.98492188 16.07960938 23.21875 16.0703125 C24.41371094 16.05871094 25.60867188 16.04710937 26.83984375 16.03515625 C29.78125 16.1328125 29.78125 16.1328125 30.78125 17.1328125 C30.85444621 19.82936104 30.87367537 22.49972708 30.84375 25.1953125 C30.83923828 25.95392578 30.83472656 26.71253906 30.83007812 27.49414062 C30.8182568 29.37373121 30.80032078 31.25328149 30.78125 33.1328125 C26.16125 33.4628125 21.54125 33.7928125 16.78125 34.1328125 C16.7542759 37.54953198 16.73442328 40.96603839 16.71875 44.3828125 C16.70618164 45.83494141 16.70618164 45.83494141 16.69335938 47.31640625 C16.69013672 48.25097656 16.68691406 49.18554688 16.68359375 50.1484375 C16.67835693 51.00727539 16.67312012 51.86611328 16.66772461 52.75097656 C16.77585014 55.01951994 17.14542577 56.95912965 17.78125 59.1328125 C19.78079746 59.17535606 21.78166636 59.17362033 23.78125 59.1328125 C24.11125 58.8028125 24.44125 58.4728125 24.78125 58.1328125 C26.44742115 58.09217418 28.11513095 58.0900915 29.78125 58.1328125 C29.97460938 58.74769531 30.16796875 59.36257813 30.3671875 59.99609375 C30.75777344 61.20845703 30.75777344 61.20845703 31.15625 62.4453125 C31.41148437 63.24582031 31.66671875 64.04632812 31.9296875 64.87109375 C32.76956811 67.36005778 32.76956811 67.36005778 34.78125 70.1328125 C34.65625 72.6953125 34.65625 72.6953125 33.78125 75.1328125 C30.24344221 77.62335878 26.21712654 77.65378035 22.03125 77.8828125 C20.95435913 77.94202881 20.95435913 77.94202881 19.85571289 78.00244141 C12.03911901 78.3346089 6.72138857 77.21827974 0.32421875 72.64453125 C-6.34817555 66.10727405 -6.20126379 56.01039396 -6.33984375 47.21484375 C-6.36248134 42.85262331 -6.30775556 38.49408503 -6.21875 34.1328125 C-7.67611087 33.93789798 -9.13469593 33.75211892 -10.59375 33.5703125 C-11.40585937 33.46589844 -12.21796875 33.36148438 -13.0546875 33.25390625 C-15.26774186 32.95043922 -15.26774186 32.95043922 -17.21875 34.1328125 C-17.04472656 35.01066406 -16.87070312 35.88851562 -16.69140625 36.79296875 C-15.85019177 42.69333909 -16.37751853 48.6400601 -16.65625 54.5703125 C-16.76045855 56.94395179 -16.86335607 59.31764906 -16.96484375 61.69140625 C-17.01237793 62.80112793 -17.05991211 63.91084961 -17.10888672 65.05419922 C-17.2408449 68.75196065 -17.26000845 72.43330512 -17.21875 76.1328125 C-21.27139518 77.48369423 -25.03720796 77.3562665 -29.28125 77.3828125 C-30.10947266 77.4034375 -30.93769531 77.4240625 -31.79101562 77.4453125 C-32.97920898 77.45304688 -32.97920898 77.45304688 -34.19140625 77.4609375 C-34.91593994 77.4702832 -35.64047363 77.47962891 -36.38696289 77.48925781 C-36.99145264 77.37163086 -37.59594238 77.25400391 -38.21875 77.1328125 C-40.49592346 73.71705231 -40.46728592 72.51039304 -40.46166992 68.49975586 C-40.46474655 67.34523422 -40.46782318 66.19071259 -40.47099304 65.00120544 C-40.46380753 63.75428421 -40.45662201 62.50736298 -40.44921875 61.22265625 C-40.44876053 59.94427383 -40.44830231 58.66589142 -40.4478302 57.34877014 C-40.44480688 54.64440653 -40.43798853 51.94038308 -40.42456055 49.23608398 C-40.40755389 45.76682694 -40.40374679 42.29771544 -40.40450573 38.82842159 C-40.40416876 35.52231871 -40.39533294 32.21624644 -40.38671875 28.91015625 C-40.38560593 27.66121078 -40.3844931 26.41226532 -40.38334656 25.12547302 C-40.37377678 23.39841881 -40.37377678 23.39841881 -40.36401367 21.63647461 C-40.35829597 20.11116371 -40.35829597 20.11116371 -40.35246277 18.55503845 C-40.21875 16.1328125 -40.21875 16.1328125 -39.21875 14.1328125 C-31.27587806 12.53392269 -22.67583588 12.30636779 -15.65625 16.7578125 C-15.181875 17.2115625 -14.7075 17.6653125 -14.21875 18.1328125 C-13.55875 17.4728125 -12.89875 16.8128125 -12.21875 16.1328125 C-8.59375 16.0078125 -8.59375 16.0078125 -5.21875 16.1328125 C-5.23035156 15.06160156 -5.24195313 13.99039062 -5.25390625 12.88671875 C-5.26328299 11.48958507 -5.27238331 10.09244951 -5.28125 8.6953125 C-5.28962891 7.98826172 -5.29800781 7.28121094 -5.30664062 6.55273438 C-5.31528588 4.74587691 -5.27095011 2.93893647 -5.21875 1.1328125 C-3.66268249 -0.42325501 -2.15917629 0.00310481 0 0 Z " fill="#6D6E6E" transform="translate(821.21875,466.8671875)"/>
<path d="M0 0 C2.93832645 0.11381897 5.8751065 0.24056551 8.8125 0.375 C10.06256836 0.42140625 10.06256836 0.42140625 11.33789062 0.46875 C12.14033203 0.50742187 12.94277344 0.54609375 13.76953125 0.5859375 C14.87711792 0.63306885 14.87711792 0.63306885 16.00708008 0.68115234 C18 1 18 1 21 3 C23.11104765 2.57097771 23.11104765 2.57097771 25.375 1.625 C33.43452115 -0.98318323 41.60176603 -1.50776676 49.4375 2.0625 C55.26985154 5.40069145 59.25179754 9.89079671 62 16 C63.93816484 25.36799673 63.33994087 35.59038511 63.5625 45.125 C63.60577881 46.8619877 63.64939578 48.598967 63.69335938 50.3359375 C63.79947344 54.55720499 63.90100529 58.7785598 64 63 C61.65147472 64.17426264 60.26225935 64.11508173 57.6484375 64.09765625 C56.37226562 64.09282227 56.37226562 64.09282227 55.0703125 64.08789062 C54.18085937 64.07951172 53.29140625 64.07113281 52.375 64.0625 C51.4778125 64.05798828 50.580625 64.05347656 49.65625 64.04882812 C47.43743352 64.03702591 45.21874982 64.02056155 43 64 C41.27319108 61.0050192 40.76511317 58.91705663 40.83984375 55.47265625 C40.85168701 54.60382812 40.86353027 53.735 40.87573242 52.83984375 C40.89611572 51.92332031 40.91649902 51.00679687 40.9375 50.0625 C41.90894578 34.80636901 41.90894578 34.80636901 37 21 C33.7999247 19.66663529 31.81941547 20.02802174 28.375 20.5625 C24.90122805 21.71623623 24.90122805 21.71623623 23.125 24.4375 C20.37519322 33.14522148 20.888778 42.58265129 21 51.625 C21.02536147 53.76297191 21.04644447 55.90100045 21.0625 58.0390625 C21.07410156 58.96928223 21.08570313 59.89950195 21.09765625 60.85791016 C21 63 21 63 20 64 C18.5112814 64.08669432 17.018555 64.10703494 15.52734375 64.09765625 C14.62822266 64.09443359 13.72910156 64.09121094 12.80273438 64.08789062 C11.38444336 64.07532227 11.38444336 64.07532227 9.9375 64.0625 C8.98810547 64.05798828 8.03871094 64.05347656 7.06054688 64.04882812 C4.70696935 64.0370011 2.35351523 64.02052025 0 64 C-1.95074429 60.71983539 -2.25259284 58.26114952 -2.25878906 54.46875 C-2.26509338 53.36080078 -2.27139771 52.25285156 -2.27789307 51.11132812 C-2.2738446 49.91958984 -2.26979614 48.72785156 -2.265625 47.5 C-2.26753845 46.27216797 -2.2694519 45.04433594 -2.27142334 43.77929688 C-2.2727842 41.18359166 -2.26909466 38.58787963 -2.26074219 35.9921875 C-2.25004163 32.01546972 -2.26064118 28.03920371 -2.2734375 24.0625 C-2.27211589 21.54166567 -2.26955346 19.02083162 -2.265625 16.5 C-2.26967346 15.30826172 -2.27372192 14.11652344 -2.27789307 12.88867188 C-2.27158875 11.78072266 -2.26528442 10.67277344 -2.25878906 9.53125 C-2.25719788 8.55736328 -2.25560669 7.58347656 -2.25396729 6.58007812 C-1.99236623 3.92244777 -1.35476609 2.2780309 0 0 Z " fill="#6D6E6E" transform="translate(574,480)"/>
<path d="M0 0 C5.48160753 5.35702554 9.12121651 12.11871894 9.45410156 19.87719727 C9.45347952 21.60706289 9.43155758 23.33702486 9.390625 25.06640625 C9.38496521 25.98590561 9.37930542 26.90540497 9.37347412 27.85276794 C9.35128849 30.75656764 9.30112758 33.65908057 9.25 36.5625 C9.2299119 38.54490391 9.2116652 40.52732738 9.1953125 42.50976562 C9.15148241 47.34033086 9.08258128 52.16994816 9 57 C5.73188198 58.63405901 2.15000593 58.18453757 -1.4375 58.1875 C-2.21416016 58.19974609 -2.99082031 58.21199219 -3.79101562 58.22460938 C-7.71232309 58.23474195 -9.66618745 58.2225417 -13 56 C-15.21250343 56.42497025 -15.21250343 56.42497025 -17.5625 57.375 C-27.55165394 60.62728268 -35.43855877 58.9161961 -44.8125 54.75 C-49.19529695 51.24376244 -50.75724808 48.10875402 -51.38671875 42.640625 C-51.70601649 32.20289204 -51.70601649 32.20289204 -49.25 28.1875 C-46.93443626 25.93625748 -46.02977458 25.60595492 -43 25 C-42.61134766 24.02160156 -42.61134766 24.02160156 -42.21484375 23.0234375 C-41 21 -41 21 -38.63671875 20.390625 C-37.66347656 20.34421875 -36.69023438 20.2978125 -35.6875 20.25 C-34.62402344 20.19457031 -33.56054688 20.13914062 -32.46484375 20.08203125 C-26.97454574 19.95204674 -21.49123738 19.92028849 -16 20 C-16 18.35 -16 16.7 -16 15 C-22.75624248 13.09361104 -29.43723379 13.50614884 -36 16 C-37.01868662 16.98095748 -38.02351983 17.97702078 -39 19 C-40.32 19 -41.64 19 -43 19 C-43.86992154 16.94409546 -44.72037689 14.87994664 -45.5625 12.8125 C-46.03816406 11.66394531 -46.51382812 10.51539063 -47.00390625 9.33203125 C-48.03395062 5.88643185 -48.32276799 4.31550937 -47 1 C-35.84014326 -10.26489069 -12.32019909 -8.0280007 0 0 Z M-30 36 C-30 37.65 -30 39.3 -30 41 C-25.58989896 42.41123233 -21.08240077 42.60280022 -16.625 41.3125 C-14.74167315 40.04884835 -14.74167315 40.04884835 -14.25 37.375 C-14.1675 36.59125 -14.085 35.8075 -14 35 C-18.86032337 32.56983831 -25.32009053 33.58456286 -30 36 Z " fill="#6C6D6C" transform="translate(555,486)"/>
<path d="M0 0 C0.86753906 0.03544922 1.73507812 0.07089844 2.62890625 0.10742188 C3.46292969 0.15060547 4.29695312 0.19378906 5.15625 0.23828125 C6.29803711 0.29495972 6.29803711 0.29495972 7.46289062 0.3527832 C9.5 0.6875 9.5 0.6875 12.5 2.6875 C13.57513526 4.42079791 14.44366814 6.20010329 15.33984375 8.03125 C16.77704358 10.08301003 18.21702799 10.73427578 20.5 11.6875 C21.61177467 10.80112622 22.71406614 9.9028535 23.8125 9 C24.42738281 8.50113281 25.04226563 8.00226563 25.67578125 7.48828125 C27.68335245 5.7521301 27.68335245 5.7521301 28.53125 3.03125 C30.5 0.6875 30.5 0.6875 32.7956543 0.1940918 C35.76795442 -0.03188462 38.70673511 -0.10811713 41.6875 -0.125 C42.72326172 -0.15013672 43.75902344 -0.17527344 44.82617188 -0.20117188 C47.38449579 -0.26011943 49.94110605 -0.29634257 52.5 -0.3125 C53.63867188 4.46142578 53.63867188 4.46142578 52.390625 6.49609375 C51.84921875 7.03363281 51.3078125 7.57117188 50.75 8.125 C47.95408443 11.08997093 46.15188723 13.92486798 44.5 17.6875 C43.84 17.6875 43.18 17.6875 42.5 17.6875 C42.273125 18.3475 42.04625 19.0075 41.8125 19.6875 C40.5 22.6875 40.5 22.6875 39.11328125 24.51953125 C37.58914566 26.54771168 36.41132321 28.31629009 35.5 30.6875 C36.02850657 33.83275859 37.71194177 36.09207874 39.5 38.6875 C40.75296822 40.64393555 42.00286027 42.6023439 43.25 44.5625 C43.86359375 45.48804688 44.4771875 46.41359375 45.109375 47.3671875 C46.5 49.6875 46.5 49.6875 46.5 51.6875 C47.16 51.6875 47.82 51.6875 48.5 51.6875 C48.7475 52.30625 48.995 52.925 49.25 53.5625 C50.70628639 56.03818687 51.87812506 56.63875002 54.5 57.6875 C54.5 59.3375 54.5 60.9875 54.5 62.6875 C48.1530072 65.8609964 37.3102253 65.01978836 30.5 63.6875 C26.67977288 60.94744086 24.91723786 58.14376336 23.5 53.6875 C23.5 53.0275 23.5 52.3675 23.5 51.6875 C22.18 51.3575 20.86 51.0275 19.5 50.6875 C19.02949219 51.37457031 18.55898438 52.06164062 18.07421875 52.76953125 C17.45160156 53.67058594 16.82898438 54.57164062 16.1875 55.5 C15.57261719 56.39332031 14.95773437 57.28664063 14.32421875 58.20703125 C10.40421727 63.53722599 10.40421727 63.53722599 7.35522461 64.04394531 C6.54577393 64.03459961 5.73632324 64.02525391 4.90234375 64.015625 C3.57686523 64.00789062 3.57686523 64.00789062 2.22460938 64 C1.30486328 63.979375 0.38511719 63.95875 -0.5625 63.9375 C-1.48611328 63.93234375 -2.40972656 63.9271875 -3.36132812 63.921875 C-10.19088912 63.84205544 -10.19088912 63.84205544 -12.5 62.6875 C-12.10791281 57.32897506 -10.1642613 53.54581875 -6.5 49.6875 C-5.84 49.6875 -5.18 49.6875 -4.5 49.6875 C-4.231875 48.800625 -3.96375 47.91375 -3.6875 47 C-2.23844893 42.95791018 -0.24617278 39.72681209 2.25 36.25 C3.901725 32.86396374 3.41467505 31.31526917 2.5 27.6875 C0.89114914 24.69462548 0.89114914 24.69462548 -1.1875 21.8125 C-2.26257813 20.24822266 -2.26257813 20.24822266 -3.359375 18.65234375 C-5.15622623 16.16363921 -7.01635526 13.76710497 -8.9375 11.375 C-11.68781964 7.81970875 -12.31404738 5.1503628 -12.5 0.6875 C-8.26990239 -0.72253254 -4.41311996 -0.23934454 0 0 Z " fill="#F4F4F4" transform="translate(651.5,480.3125)"/>
<path d="M0 0 C1.8008329 0.00213753 1.8008329 0.00213753 3.63804626 0.00431824 C4.29997482 0.00241989 4.96190338 0.00052155 5.64389038 -0.00143433 C7.83599113 -0.00514486 10.02776198 0.00556479 12.21983337 0.01676941 C13.73915569 0.01796105 15.25847875 0.0184144 16.77780151 0.01815796 C19.96303412 0.01972324 23.14815441 0.02801699 26.33335876 0.04142761 C30.42489422 0.05843198 34.51630631 0.06224158 38.60787296 0.06148243 C41.74502754 0.06175377 44.88215491 0.06722896 48.01930046 0.07448387 C49.52844982 0.0776752 51.03760228 0.07963903 52.54675484 0.08037758 C54.65145799 0.08253544 56.7560278 0.09126706 58.86070251 0.10197449 C60.66034203 0.10769218 60.66034203 0.10769218 62.49633789 0.11352539 C65.18467712 0.24723816 65.18467712 0.24723816 66.18467712 1.24723816 C66.2847472 4.06980307 66.3234331 6.86247006 66.30967712 9.68473816 C66.31354431 10.47428894 66.3174115 11.26383972 66.32139587 12.07731628 C66.31130779 17.99397682 66.31130779 17.99397682 65.18467712 20.24723816 C58.25467712 20.24723816 51.32467712 20.24723816 44.18467712 20.24723816 C42.95285001 22.71089239 43.03364328 24.38451127 42.995224 27.14006042 C42.97014771 28.66657982 42.97014771 28.66657982 42.94456482 30.22393799 C42.93098938 31.32604111 42.91741394 32.42814423 42.90342712 33.56364441 C42.8850177 34.69044113 42.86660828 35.81723785 42.84764099 36.97817993 C42.76873011 41.81605771 42.70107381 46.65407857 42.63243103 51.49211121 C42.58084881 55.01602889 42.52354771 58.53982116 42.46592712 62.06364441 C42.45235168 63.16777176 42.43877625 64.27189911 42.42478943 65.40948486 C42.39971313 66.93127602 42.39971313 66.93127602 42.37413025 68.48381042 C42.35533813 69.83044518 42.35533813 69.83044518 42.33616638 71.20428467 C42.18467712 73.24723816 42.18467712 73.24723816 41.18467712 74.24723816 C37.87950779 74.4975979 34.56071671 74.43245768 31.24717712 74.43473816 C30.31454041 74.44698425 29.38190369 74.45923035 28.42100525 74.47184753 C27.08392517 74.47474792 27.08392517 74.47474792 25.71983337 74.47770691 C24.89878113 74.4818158 24.07772888 74.48592468 23.23179626 74.49015808 C21.18467712 74.24723816 21.18467712 74.24723816 19.18467712 72.24723816 C18.90620422 70.0705719 18.90620422 70.0705719 18.86582947 67.33854675 C18.84595978 66.31763947 18.82609009 65.29673218 18.80561829 64.24488831 C18.79406708 63.13964813 18.78251587 62.03440796 18.77061462 60.89567566 C18.7415654 59.20192307 18.7415654 59.20192307 18.71192932 57.47395325 C18.65200643 53.85679244 18.6056971 50.23960003 18.55967712 46.62223816 C18.52150907 44.17430738 18.48245805 41.7263902 18.44248962 39.27848816 C18.34629453 33.26819192 18.26128447 27.25781423 18.18467712 21.24723816 C13.4637781 19.90149109 8.79440817 20.29359077 3.9405365 20.54997253 C-1.26853509 20.68056207 -1.26853509 20.68056207 -3.79188538 18.68083191 C-5.175892 15.38985433 -5.17615651 12.68405528 -5.12782288 9.12223816 C-5.12395569 7.88216003 -5.1200885 6.64208191 -5.11610413 5.36442566 C-4.72500466 1.31121306 -4.09965379 0.36002651 0 0 Z " fill="#6D6E6D" transform="translate(232.81532287597656,474.7527618408203)"/>
<path d="M0 0 C22.44 0 44.88 0 68 0 C68 4.95 68 9.9 68 15 C59.75 15 51.5 15 43 15 C43 35.13 43 55.26 43 76 C36.73 76 30.46 76 24 76 C24 55.87 24 35.74 24 15 C16.08 15 8.16 15 0 15 C0 10.05 0 5.1 0 0 Z " fill="#6B6C6C" transform="translate(393,466)"/>
<path d="M0 0 C-1.632914 5.08908168 -4.68107057 8.99792053 -7.8125 13.25 C-8.38709961 14.03850342 -8.96169922 14.82700684 -9.55371094 15.6394043 C-14.0708475 21.80958662 -18.71395455 27.87891597 -23.38598633 33.93212891 C-27.43386692 39.19863981 -31.26893694 44.57573917 -35 50.0703125 C-35.99 51.52050781 -35.99 51.52050781 -37 53 C-37.49342896 53.9432312 -37.49342896 53.9432312 -37.99682617 54.90551758 C-39.1812536 56.97207087 -40.18440473 58.44987464 -42 60 C-45.47656093 60.84877997 -48.76068107 60.66592086 -52.3125 60.4375 C-53.24384766 60.40591797 -54.17519531 60.37433594 -55.13476562 60.34179688 C-57.42642852 60.25953205 -59.71157286 60.14471638 -62 60 C-60.35511015 54.81859696 -57.18520057 50.82273971 -54 46.5 C-53.41839111 45.70335937 -52.83678223 44.90671875 -52.23754883 44.0859375 C-45.40978295 34.76879421 -38.44062228 25.55476131 -31.01953125 16.69921875 C-29.4170896 14.55746405 -28.2022174 12.60560052 -26.94921875 10.26953125 C-20.17810433 -1.71992323 -13.10289645 -1.69503589 0 0 Z " fill="#6A6C6C" transform="translate(702,483)"/>
<path d="M0 0 C3.84640721 2.81708697 7.45388991 5.81527693 11 9 C11.70640625 9.62390625 12.4128125 10.2478125 13.140625 10.890625 C29.10556805 25.84990234 39.95801634 48.11834304 41 70 C42.57201172 70.07347656 42.57201172 70.07347656 44.17578125 70.1484375 C45.55471354 70.22348143 46.9336185 70.29902857 48.3125 70.375 C49.00279297 70.4059375 49.69308594 70.436875 50.40429688 70.46875 C54.06990789 70.68124919 55.87900792 70.91933861 59 73 C58.61377995 78.84431087 57.2258816 81.56742375 53.3125 85.875 C52.31739532 86.9946604 51.32399519 88.11583736 50.33203125 89.23828125 C49.53079834 90.13474365 49.53079834 90.13474365 48.71337891 91.04931641 C45.55382238 94.64647467 42.53480921 98.36012003 39.5 102.0625 C38.90098877 102.78872559 38.30197754 103.51495117 37.68481445 104.26318359 C34.47548537 108.13943948 34.47548537 108.13943948 31.48242188 112.18139648 C29.53560981 114.56970398 27.99119406 114.67662767 25 115 C16.67099264 105.37435231 8.47369605 95.64668318 0.44824219 85.76586914 C-0.80587663 84.23669831 -2.09522756 82.73655121 -3.390625 81.2421875 C-5.6222197 78.1331211 -5.29222875 75.72591654 -5 72 C5.37357631 69.51936219 5.37357631 69.51936219 11 71 C11.59890166 56.69895421 3.67167052 44.27114502 -5.3125 33.75 C-16.69845226 21.59472664 -31.11093548 15.69008329 -47 12 C-47 11.67 -47 11.34 -47 11 C-28.83960166 11.4509354 -14.34307186 21.4930775 -2.02734375 34.00390625 C8.42107487 45.37086716 14 58.56994952 14 74 C8.06 74 2.12 74 -4 74 C-1.55495884 79.07620908 -1.55495884 79.07620908 1.6015625 83.26171875 C2.33040649 84.09606445 2.33040649 84.09606445 3.07397461 84.94726562 C3.58581299 85.52154297 4.09765137 86.09582031 4.625 86.6875 C5.70283638 87.91968714 6.77964869 89.15277078 7.85546875 90.38671875 C8.3870459 90.99435059 8.91862305 91.60198242 9.46630859 92.22802734 C12.41688447 95.63701807 15.24322585 99.14541164 18.0859375 102.64453125 C20.36619504 105.4506441 22.67791413 108.22847815 25 111 C28.27078061 110.70369235 29.70086324 110.2957503 32.0703125 107.953125 C33.08738281 106.61507812 33.08738281 106.61507812 34.125 105.25 C34.89714844 104.25871094 35.66929687 103.26742187 36.46484375 102.24609375 C36.87331543 101.71741699 37.28178711 101.18874023 37.70263672 100.64404297 C39.94889979 97.79753647 42.32657652 95.06389472 44.6875 92.3125 C52.40469745 84.55386785 52.40469745 84.55386785 56 75 C50.39 74.67 44.78 74.34 39 74 C38.6596875 71.03 38.6596875 71.03 38.3125 68 C34.72864783 43.31124058 22.70666079 21.24335041 3.00390625 5.625 C-8.5719919 -2.7629213 -21.14547837 -8.42405992 -35 -12 C-36.22783203 -12.33837891 -36.22783203 -12.33837891 -37.48046875 -12.68359375 C-61.31106007 -18.17713229 -86.96027918 -12.29367842 -107.55297852 0.26245117 C-118.24783403 7.15462838 -132.8164549 18.8355381 -137 31 C-136.31550781 31.23460937 -135.63101563 31.46921875 -134.92578125 31.7109375 C-131.37191531 33.27672623 -128.33327234 35.38052475 -125.1875 37.625 C-124.59001953 38.04523438 -123.99253906 38.46546875 -123.37695312 38.8984375 C-121.91479435 39.92779728 -120.45695101 40.9632823 -119 42 C-115.74957109 40.60493574 -113.92628208 39.03216606 -111.6875 36.3125 C-110.76710937 35.23742187 -110.76710937 35.23742187 -109.828125 34.140625 C-109.22484375 33.43421875 -108.6215625 32.7278125 -108 32 C-97.86808372 20.1968398 -82.46885255 11.82539987 -67 10 C-63.70677213 9.89070198 -60.41954038 9.90524923 -57.125 9.9375 C-56.24585938 9.94201172 -55.36671875 9.94652344 -54.4609375 9.95117188 C-52.30726197 9.96287663 -50.15362183 9.98080931 -48 10 C-48 10.33 -48 10.66 -48 11 C-48.969375 11.02578125 -49.93875 11.0515625 -50.9375 11.078125 C-64.82595778 11.60274567 -77.83849716 13.88576119 -90 21 C-91.3921875 21.7734375 -91.3921875 21.7734375 -92.8125 22.5625 C-95.14430657 24.0417739 -95.14430657 24.0417739 -97.6875 26.1875 C-100 28 -100 28 -102 28 C-102 28.66 -102 29.32 -102 30 C-103.42779824 31.12184147 -104.85584221 32.24337166 -106.28515625 33.36328125 C-108.93228666 35.88981347 -110.60476242 38.94862754 -112.41015625 42.109375 C-114 44 -114 44 -116.3515625 44.9609375 C-119.88818862 45.01310013 -121.42128679 43.87499988 -124.3125 41.875 C-125.74335938 40.90046875 -125.74335938 40.90046875 -127.203125 39.90625 C-128.12609375 39.2771875 -129.0490625 38.648125 -130 38 C-132.13716664 36.75906453 -134.2787889 35.53189637 -136.44140625 34.3359375 C-138.54838371 32.52995682 -139.13373312 30.59449087 -140 28 C-128.44640323 14.02770634 -117.24153035 2.52456013 -101 -6 C-100.41347656 -6.33644531 -99.82695312 -6.67289062 -99.22265625 -7.01953125 C-92.31916324 -10.81116527 -84.56675792 -12.9210632 -77 -15 C-76.31147949 -15.19126465 -75.62295898 -15.3825293 -74.91357422 -15.57958984 C-48.96768166 -22.10843913 -21.80764284 -14.33822167 0 0 Z " fill="#F1F1F1" transform="translate(320,429)"/>
<path d="M0 0 C4.10899679 0.88683384 6.14751125 3.70695356 8.77734375 6.7734375 C9.29361328 7.35158203 9.80988281 7.92972656 10.34179688 8.52539062 C13.24189278 11.7949255 16.00959215 15.15298988 18.71484375 18.5859375 C24.62977668 26.10689258 24.62977668 26.10689258 31.27734375 32.9609375 C33.71484375 35.5859375 33.71484375 35.5859375 34.27734375 38.3359375 C33.71484375 40.5859375 33.71484375 40.5859375 30.71484375 42.5859375 C27.94829051 42.72839647 25.28831069 42.77363195 22.52734375 42.7109375 C21.77775391 42.70191406 21.02816406 42.69289063 20.25585938 42.68359375 C18.40871721 42.66006328 16.56173963 42.62419311 14.71484375 42.5859375 C18.29281983 56.17341161 18.29281983 56.17341161 24.71484375 68.5859375 C25.39546875 69.6584375 26.07609375 70.7309375 26.77734375 71.8359375 C37.15896549 86.57114255 53.20536195 95.91849695 70.71484375 99.5859375 C74.66363797 99.9988487 78.55927537 100.06413728 82.52734375 100.0234375 C83.57905762 100.01513916 84.63077148 100.00684082 85.71435547 99.99829102 C103.15964059 99.62056524 120.08617391 92.84317587 132.71484375 80.5859375 C134.95427941 78.01850368 137.06781401 75.40557113 139.12109375 72.6875 C140.71484375 70.5859375 140.71484375 70.5859375 142.71484375 68.5859375 C147.74204449 68.8222589 150.79039809 70.65982695 154.83984375 73.5234375 C158.78592358 76.33651179 158.78592358 76.33651179 163.0078125 78.6796875 C164.71484375 79.5859375 164.71484375 79.5859375 165.90234375 82.1484375 C165.60543325 87.59179663 162.20168587 90.60302918 158.71484375 94.5859375 C157.91046875 95.6171875 157.10609375 96.6484375 156.27734375 97.7109375 C139.04392882 117.0459884 112.98428931 128.10307311 87.4296875 129.8046875 C70.36896669 130.27478773 52.72104052 126.70556955 37.71484375 118.5859375 C36.85246094 118.16699219 35.99007812 117.74804688 35.1015625 117.31640625 C23.54141072 111.51123597 13.74649742 102.66822615 5.71484375 92.5859375 C5.02648437 91.72226562 4.338125 90.85859375 3.62890625 89.96875 C-1.03731267 83.84542182 -4.44780821 77.73033904 -7.28515625 70.5859375 C-7.64351562 69.72484375 -8.001875 68.86375 -8.37109375 67.9765625 C-11.40792036 60.25891293 -14.28515625 50.93937098 -14.28515625 42.5859375 C-15.33316406 42.60914063 -16.38117188 42.63234375 -17.4609375 42.65625 C-18.83983662 42.67501053 -20.21874345 42.69321043 -21.59765625 42.7109375 C-22.28794922 42.72769531 -22.97824219 42.74445312 -23.68945312 42.76171875 C-27.45651021 42.79811544 -29.06947329 42.72972614 -32.28515625 40.5859375 C-30.96956633 35.59858814 -28.73290505 32.30287919 -25.34765625 28.5234375 C-24.35529795 27.38296109 -23.36311562 26.24233155 -22.37109375 25.1015625 C-21.8615918 24.52212891 -21.35208984 23.94269531 -20.82714844 23.34570312 C-18.34563022 20.5137235 -15.90830858 17.64485477 -13.47265625 14.7734375 C-13.01109131 14.23428711 -12.54952637 13.69513672 -12.07397461 13.13964844 C-9.01866699 9.54568992 -6.23928084 5.85287435 -3.69921875 1.87890625 C-2.28515625 0.5859375 -2.28515625 0.5859375 0 0 Z M-3.22265625 4.5 C-3.90328125 5.39460938 -4.58390625 6.28921875 -5.28515625 7.2109375 C-6.06632812 8.21125 -6.8475 9.2115625 -7.65234375 10.2421875 C-8.07354492 10.78359375 -8.49474609 11.325 -8.92871094 11.8828125 C-11.33313673 14.90176037 -13.88098588 17.79655807 -16.41015625 20.7109375 C-17.91498782 22.46661399 -19.41642448 24.22512569 -20.91650391 25.98486328 C-22.15120227 27.42923571 -23.39535173 28.86551604 -24.640625 30.30078125 C-25.60935547 31.46287109 -25.60935547 31.46287109 -26.59765625 32.6484375 C-27.15066406 33.29941406 -27.70367187 33.95039062 -28.2734375 34.62109375 C-29.74643736 36.98031099 -29.74643736 36.98031099 -28.28515625 41.5859375 C-23.00515625 41.5859375 -17.72515625 41.5859375 -12.28515625 41.5859375 C-12.03765625 44.9271875 -12.03765625 44.9271875 -11.78515625 48.3359375 C-10.2615227 62.6292145 -3.94287325 77.18139463 4.71484375 88.5859375 C5.48054688 89.6171875 6.24625 90.6484375 7.03515625 91.7109375 C22.10643967 111.16911307 43.83951714 121.9732591 67.47265625 127.1953125 C88.30014858 129.70464893 108.1229498 127.41132251 126.71484375 117.5859375 C128.12830078 116.89177734 128.12830078 116.89177734 129.5703125 116.18359375 C141.86578486 109.92313462 157.44117619 98.32421033 163.71484375 85.5859375 C163.41947598 83.07135425 163.03498733 81.89450219 161.19604492 80.12207031 C160.55642822 79.68217773 159.91681152 79.24228516 159.2578125 78.7890625 C158.55720703 78.30566406 157.85660156 77.82226562 157.13476562 77.32421875 C156.39806641 76.83308594 155.66136719 76.34195313 154.90234375 75.8359375 C154.17724609 75.32933594 153.45214844 74.82273437 152.70507812 74.30078125 C148.19168637 71.16012781 148.19168637 71.16012781 142.71484375 70.5859375 C140.93680393 72.32150475 140.93680393 72.32150475 139.40234375 74.6484375 C129.08454821 88.55030939 113.86364244 98.27132179 96.68945312 101.19335938 C75.62417781 103.97347778 57.19992254 100.25463773 39.56640625 88.484375 C23.89609864 76.41340975 16.90498376 60.28040832 12.71484375 41.5859375 C18.32484375 41.5859375 23.93484375 41.5859375 29.71484375 41.5859375 C31.24079167 36.86487574 31.24079167 36.86487574 29.30078125 34.21875 C28.57117188 33.39117187 27.8415625 32.56359375 27.08984375 31.7109375 C26.26613281 30.75832031 25.44242188 29.80570312 24.59375 28.82421875 C23.63421632 27.74470123 22.67457417 26.66528011 21.71484375 25.5859375 C20.0502326 23.68100033 18.39083026 21.77163461 16.73266602 19.86108398 C15.59960687 18.55705214 14.46339105 17.25575613 13.32397461 15.95727539 C10.41520328 12.62711785 7.68779839 9.27787003 5.15234375 5.6484375 C4.34796875 4.6378125 3.54359375 3.6271875 2.71484375 2.5859375 C-1.26481132 2.11741024 -1.26481132 2.11741024 -3.22265625 4.5 Z " fill="#F2F2F2" transform="translate(181.28515625,478.4140625)"/>
<path d="M0 0 C5.94 0 11.88 0 18 0 C18 19.47 18 38.94 18 59 C12.06 59 6.12 59 0 59 C0 39.53 0 20.06 0 0 Z " fill="#6B6D6C" transform="translate(783,483)"/>
<path d="M0 0 C9.10959165 -0.02312545 18.21917326 -0.04091612 27.3287878 -0.05181217 C31.55831371 -0.05704056 35.7878196 -0.0641374 40.01733398 -0.07543945 C44.09568543 -0.08626991 48.17401757 -0.09227717 52.25238228 -0.09487724 C53.81177639 -0.09673121 55.3711694 -0.10035127 56.93055534 -0.10573006 C59.10729162 -0.11294262 61.28394714 -0.11399085 63.46069336 -0.11352539 C65.32267616 -0.11685631 65.32267616 -0.11685631 67.22227478 -0.12025452 C70 0 70 0 71 1 C71.39943176 3.52195967 71.75079848 6.02963656 72.0625 8.5625 C72.19881836 9.62887695 72.19881836 9.62887695 72.33789062 10.71679688 C72.56239503 12.47738403 72.78168397 14.23863478 73 16 C74.25296875 16.04898437 75.5059375 16.09796875 76.796875 16.1484375 C78.44793821 16.22348583 80.09897881 16.29903277 81.75 16.375 C82.9875 16.42140625 82.9875 16.42140625 84.25 16.46875 C85.04921875 16.50742187 85.8484375 16.54609375 86.671875 16.5859375 C87.4050293 16.6173584 88.13818359 16.6487793 88.89355469 16.68115234 C91 17 91 17 93.12133789 18.078125 C93.74129639 18.38234375 94.36125488 18.6865625 95 19 C97.45170853 18.17795135 97.45170853 18.17795135 100 17 C101.92903132 16.7240522 103.8689032 16.51550097 105.8125 16.375 C106.78832031 16.30023438 107.76414062 16.22546875 108.76953125 16.1484375 C109.87361328 16.07496094 109.87361328 16.07496094 111 16 C113.28288174 22.27792478 113.45084429 28.3526679 113 35 C110.82975971 37.17024029 105.52646302 36.73284103 102.45898438 36.98632812 C100.18593095 37.19508248 100.18593095 37.19508248 97 38 C91.89679479 45.90893416 92.79847054 56.53193895 93 65.5 C93.0508257 67.82273432 93.09295766 70.14568064 93.125 72.46875 C93.14820313 73.48388672 93.17140625 74.49902344 93.1953125 75.54492188 C93 78 93 78 91 80 C89.15234375 80.25878906 89.15234375 80.25878906 86.9375 80.265625 C85.74253906 80.26949219 85.74253906 80.26949219 84.5234375 80.2734375 C83.69070313 80.26570312 82.85796875 80.25796875 82 80.25 C80.75089844 80.26160156 80.75089844 80.26160156 79.4765625 80.2734375 C78.67992187 80.27085937 77.88328125 80.26828125 77.0625 80.265625 C76.33160156 80.26336914 75.60070312 80.26111328 74.84765625 80.25878906 C73 80 73 80 71 78 C70.78881836 75.35571289 70.78881836 75.35571289 70.83984375 71.97265625 C70.85144531 70.71718994 70.86304688 69.46172363 70.875 68.16821289 C70.8853125 67.49839386 70.895625 66.82857483 70.90625 66.13845825 C70.95900185 62.63411763 70.97856628 59.12967002 70.99609375 55.625 C71.00003143 54.91009903 71.00396912 54.19519806 71.00802612 53.45863342 C71.04461733 42.29399637 70.48227972 31.15271844 70 20 C62.08 20 54.16 20 46 20 C46.03552979 21.78204834 46.07105957 23.56409668 46.10766602 25.40014648 C46.22361745 31.27539571 46.33489954 37.15072329 46.4429636 43.02612209 C46.50868172 46.58982026 46.57629855 50.15346168 46.64819336 53.71704102 C46.73068566 57.80996634 46.80502956 61.90300379 46.87890625 65.99609375 C46.90594131 67.28148544 46.93297638 68.56687714 46.96083069 69.89122009 C46.98092697 71.07236893 47.00102325 72.25351776 47.02172852 73.47045898 C47.04171402 74.51636703 47.06169952 75.56227509 47.08229065 76.63987732 C47 79 47 79 46 80 C42.52866703 80.27834768 39.04367496 80.23176202 35.5625 80.25 C34.58216797 80.270625 33.60183594 80.29125 32.59179688 80.3125 C31.65529297 80.31765625 30.71878906 80.3228125 29.75390625 80.328125 C28.89095947 80.3374707 28.0280127 80.34681641 27.13891602 80.35644531 C26.43307373 80.23881836 25.72723145 80.12119141 25 80 C22.71541501 76.57312252 22.75548548 75.36059689 22.77294922 71.33520508 C22.77310028 70.17422806 22.77325134 69.01325104 22.77340698 67.8170929 C22.78372955 66.56389755 22.79405212 65.31070221 22.8046875 64.01953125 C22.8075174 62.73640549 22.81034729 61.45327972 22.81326294 60.13127136 C22.82089203 56.72323798 22.84053413 53.31537559 22.8626709 49.90740967 C22.88314503 46.42853102 22.892268 42.94962468 22.90234375 39.47070312 C22.92378084 32.64705817 22.95895701 25.8235549 23 19 C15.41 19 7.82 19 0 19 C-1.51714839 15.96570323 -1.14363916 12.82398333 -1.125 9.5 C-1.12886719 8.81035156 -1.13273437 8.12070312 -1.13671875 7.41015625 C-1.12666646 2.25333293 -1.12666646 2.25333293 0 0 Z M1 2 C1 6.95 1 11.9 1 17 C8.92 17 16.84 17 25 17 C25 37.13 25 57.26 25 78 C31.27 78 37.54 78 44 78 C44 57.87 44 37.74 44 17 C52.25 17 60.5 17 69 17 C69 12.05 69 7.1 69 2 C46.56 2 24.12 2 1 2 Z M98.6875 19.75 C97.42486328 20.23726563 97.42486328 20.23726563 96.13671875 20.734375 C93.66707624 22.19719799 93.00560636 23.35542194 92 26 C91.34 26 90.68 26 90 26 C90 23.69 90 21.38 90 19 C84.39 19 78.78 19 73 19 C73 38.47 73 57.94 73 78 C78.94 78 84.88 78 91 78 C91.03738281 75.68742188 91.07476562 73.37484375 91.11328125 70.9921875 C91.15956915 68.73818821 91.21077613 66.48435022 91.26245117 64.23046875 C91.29558667 62.67099919 91.3236537 61.11141298 91.34643555 59.55175781 C91.38019281 57.30223148 91.43251504 55.05376313 91.48828125 52.8046875 C91.49786613 51.76838699 91.49786613 51.76838699 91.50764465 50.71115112 C91.67047589 45.27993603 92.94928786 41.09083477 96.796875 37.16796875 C101.15832086 34.8557838 106.15809994 35.26314674 111 35 C111 29.39 111 23.78 111 18 C104.43268962 17.93857503 104.43268962 17.93857503 98.6875 19.75 Z " fill="#E6E6E6" transform="translate(392,464)"/>
<path d="M0 0 C2.93832645 0.11381897 5.8751065 0.24056551 8.8125 0.375 C10.06256836 0.42140625 10.06256836 0.42140625 11.33789062 0.46875 C12.14033203 0.50742187 12.94277344 0.54609375 13.76953125 0.5859375 C14.87711792 0.63306885 14.87711792 0.63306885 16.00708008 0.68115234 C18 1 18 1 21 3 C23.11104765 2.57097771 23.11104765 2.57097771 25.375 1.625 C33.43452115 -0.98318323 41.60176603 -1.50776676 49.4375 2.0625 C55.26985154 5.40069145 59.25179754 9.89079671 62 16 C63.93816484 25.36799673 63.33994087 35.59038511 63.5625 45.125 C63.60577881 46.8619877 63.64939578 48.598967 63.69335938 50.3359375 C63.79947344 54.55720499 63.90100529 58.7785598 64 63 C61.65147472 64.17426264 60.26225935 64.11508173 57.6484375 64.09765625 C56.37226562 64.09282227 56.37226562 64.09282227 55.0703125 64.08789062 C54.18085937 64.07951172 53.29140625 64.07113281 52.375 64.0625 C51.4778125 64.05798828 50.580625 64.05347656 49.65625 64.04882812 C47.43743352 64.03702591 45.21874982 64.02056155 43 64 C41.27319108 61.0050192 40.76511317 58.91705663 40.83984375 55.47265625 C40.85168701 54.60382812 40.86353027 53.735 40.87573242 52.83984375 C40.89611572 51.92332031 40.91649902 51.00679687 40.9375 50.0625 C41.90894578 34.80636901 41.90894578 34.80636901 37 21 C33.7999247 19.66663529 31.81941547 20.02802174 28.375 20.5625 C24.90122805 21.71623623 24.90122805 21.71623623 23.125 24.4375 C20.37519322 33.14522148 20.888778 42.58265129 21 51.625 C21.02536147 53.76297191 21.04644447 55.90100045 21.0625 58.0390625 C21.07410156 58.96928223 21.08570313 59.89950195 21.09765625 60.85791016 C21 63 21 63 20 64 C18.5112814 64.08669432 17.018555 64.10703494 15.52734375 64.09765625 C14.62822266 64.09443359 13.72910156 64.09121094 12.80273438 64.08789062 C11.38444336 64.07532227 11.38444336 64.07532227 9.9375 64.0625 C8.98810547 64.05798828 8.03871094 64.05347656 7.06054688 64.04882812 C4.70696935 64.0370011 2.35351523 64.02052025 0 64 C-1.95074429 60.71983539 -2.25259284 58.26114952 -2.25878906 54.46875 C-2.26509338 53.36080078 -2.27139771 52.25285156 -2.27789307 51.11132812 C-2.2738446 49.91958984 -2.26979614 48.72785156 -2.265625 47.5 C-2.26753845 46.27216797 -2.2694519 45.04433594 -2.27142334 43.77929688 C-2.2727842 41.18359166 -2.26909466 38.58787963 -2.26074219 35.9921875 C-2.25004163 32.01546972 -2.26064118 28.03920371 -2.2734375 24.0625 C-2.27211589 21.54166567 -2.26955346 19.02083162 -2.265625 16.5 C-2.26967346 15.30826172 -2.27372192 14.11652344 -2.27789307 12.88867188 C-2.27158875 11.78072266 -2.26528442 10.67277344 -2.25878906 9.53125 C-2.25719788 8.55736328 -2.25560669 7.58347656 -2.25396729 6.58007812 C-1.99236623 3.92244777 -1.35476609 2.2780309 0 0 Z M18 9 C18 7.02 18 5.04 18 3 C12.06 3 6.12 3 0 3 C0 22.8 0 42.6 0 63 C6.27 63 12.54 63 19 63 C19.02126953 59.09800781 19.02126953 59.09800781 19.04296875 55.1171875 C19.0736226 52.58515638 19.11270243 50.05338493 19.15258789 47.52148438 C19.17571968 45.76799772 19.19015229 44.01437308 19.19555664 42.26074219 C19.20488199 39.73285416 19.24594635 37.20712183 19.29296875 34.6796875 C19.2890361 33.90132538 19.28510345 33.12296326 19.28105164 32.3210144 C19.43356209 26.57315686 20.87954422 24.0233984 25 20 C28.47531087 18.26234457 32.2088001 18.40414648 36 19 C39.28175318 21.52968474 40.69243777 23.07731331 42 27 C42.15346953 29.65606301 42.25717898 32.29095095 42.31640625 34.94921875 C42.33718735 35.72183548 42.35796844 36.49445221 42.37937927 37.29048157 C42.44471038 39.7560648 42.50368315 42.22175361 42.5625 44.6875 C42.60570087 46.36003691 42.64931566 48.03256319 42.69335938 49.70507812 C42.80115324 53.80327882 42.90034835 57.90156084 43 62 C48.94 62 54.88 62 61 62 C61.09221861 56.18254244 61.17173837 50.36765704 61.21972656 44.55004883 C61.23974646 42.5743751 61.26697092 40.59875991 61.30175781 38.62329102 C61.35070207 35.7708485 61.37306525 32.91919451 61.390625 30.06640625 C61.41127014 29.19415909 61.43191528 28.32191193 61.45318604 27.42323303 C61.45564971 20.57186661 60.02795641 14.34896387 55.32305908 9.14527893 C48.99424567 3.2625433 42.5433625 1.42670144 34.0078125 1.640625 C27.95603442 2.36369459 22.59701867 5.00259246 18 9 Z " fill="#F6F6F6" transform="translate(574,480)"/>
<path d="M0 0 C5.48160753 5.35702554 9.12121651 12.11871894 9.45410156 19.87719727 C9.45347952 21.60706289 9.43155758 23.33702486 9.390625 25.06640625 C9.38496521 25.98590561 9.37930542 26.90540497 9.37347412 27.85276794 C9.35128849 30.75656764 9.30112758 33.65908057 9.25 36.5625 C9.2299119 38.54490391 9.2116652 40.52732738 9.1953125 42.50976562 C9.15148241 47.34033086 9.08258128 52.16994816 9 57 C5.73188198 58.63405901 2.15000593 58.18453757 -1.4375 58.1875 C-2.21416016 58.19974609 -2.99082031 58.21199219 -3.79101562 58.22460938 C-7.71232309 58.23474195 -9.66618745 58.2225417 -13 56 C-15.21250343 56.42497025 -15.21250343 56.42497025 -17.5625 57.375 C-27.55165394 60.62728268 -35.43855877 58.9161961 -44.8125 54.75 C-49.19529695 51.24376244 -50.75724808 48.10875402 -51.38671875 42.640625 C-51.70601649 32.20289204 -51.70601649 32.20289204 -49.25 28.1875 C-46.93443626 25.93625748 -46.02977458 25.60595492 -43 25 C-42.61134766 24.02160156 -42.61134766 24.02160156 -42.21484375 23.0234375 C-41 21 -41 21 -38.63671875 20.390625 C-37.66347656 20.34421875 -36.69023438 20.2978125 -35.6875 20.25 C-34.62402344 20.19457031 -33.56054688 20.13914062 -32.46484375 20.08203125 C-26.97454574 19.95204674 -21.49123738 19.92028849 -16 20 C-16 18.35 -16 16.7 -16 15 C-22.75624248 13.09361104 -29.43723379 13.50614884 -36 16 C-37.01868662 16.98095748 -38.02351983 17.97702078 -39 19 C-40.32 19 -41.64 19 -43 19 C-43.86992154 16.94409546 -44.72037689 14.87994664 -45.5625 12.8125 C-46.03816406 11.66394531 -46.51382812 10.51539063 -47.00390625 9.33203125 C-48.03395062 5.88643185 -48.32276799 4.31550937 -47 1 C-35.84014326 -10.26489069 -12.32019909 -8.0280007 0 0 Z M-47 3 C-45.58192622 7.47238653 -43.88695626 11.71146306 -42 16 C-39.35569195 15.47113839 -37.47552186 14.72102227 -35.0625 13.4375 C-29.665626 11.08441611 -23.74726041 11.19296999 -18 12 C-14.50653286 14.35137212 -13.31992431 15.59520416 -12.390625 19.67578125 C-12.19726562 20.82626953 -12.19726562 20.82626953 -12 22 C-12.88353149 21.97643433 -12.88353149 21.97643433 -13.78491211 21.95239258 C-16.50234027 21.889308 -19.21961361 21.85078009 -21.9375 21.8125 C-23.32678711 21.77479492 -23.32678711 21.77479492 -24.74414062 21.73632812 C-32.22987418 21.65753093 -38.53622547 22.74101661 -44.875 26.875 C-48.66561958 30.66561958 -50.19571572 33.44229366 -50.5 38.8125 C-50.27024224 45.24571742 -47.80447371 49.02928171 -43.484375 53.60546875 C-37.4420248 58.46384492 -29.2814105 57.97440177 -21.91845703 57.30859375 C-17.65788143 56.6232581 -15.17244763 54.8349532 -12 52 C-12 51.34 -12 50.68 -12 50 C-11.34 50 -10.68 50 -10 50 C-10 51.98 -10 53.96 -10 56 C-4.72 56 0.56 56 6 56 C6.09931654 50.02267229 6.17167995 44.0458312 6.21972656 38.06787109 C6.23976836 36.03686143 6.26700947 34.00590894 6.30175781 31.97509766 C6.35060414 29.04575444 6.37304343 26.117178 6.390625 23.1875 C6.41127014 22.28821777 6.43191528 21.38893555 6.45318604 20.46240234 C6.45548947 13.90344347 5.17958567 8.44244871 0.62310791 3.50927734 C-6.97694912 -3.19623641 -14.85034834 -4.36231012 -24.62890625 -4.2890625 C-32.55311325 -3.60958241 -40.32369154 -1.35519935 -47 3 Z " fill="#F5F5F5" transform="translate(555,486)"/>
<path d="M0 0 C1.8008329 0.00213753 1.8008329 0.00213753 3.63804626 0.00431824 C4.29997482 0.00241989 4.96190338 0.00052155 5.64389038 -0.00143433 C7.83599113 -0.00514486 10.02776198 0.00556479 12.21983337 0.01676941 C13.73915569 0.01796105 15.25847875 0.0184144 16.77780151 0.01815796 C19.96303412 0.01972324 23.14815441 0.02801699 26.33335876 0.04142761 C30.42489422 0.05843198 34.51630631 0.06224158 38.60787296 0.06148243 C41.74502754 0.06175377 44.88215491 0.06722896 48.01930046 0.07448387 C49.52844982 0.0776752 51.03760228 0.07963903 52.54675484 0.08037758 C54.65145799 0.08253544 56.7560278 0.09126706 58.86070251 0.10197449 C60.66034203 0.10769218 60.66034203 0.10769218 62.49633789 0.11352539 C65.18467712 0.24723816 65.18467712 0.24723816 66.18467712 1.24723816 C66.2847472 4.06980307 66.3234331 6.86247006 66.30967712 9.68473816 C66.31354431 10.47428894 66.3174115 11.26383972 66.32139587 12.07731628 C66.31130779 17.99397682 66.31130779 17.99397682 65.18467712 20.24723816 C58.25467712 20.24723816 51.32467712 20.24723816 44.18467712 20.24723816 C42.95285001 22.71089239 43.03364328 24.38451127 42.995224 27.14006042 C42.97014771 28.66657982 42.97014771 28.66657982 42.94456482 30.22393799 C42.93098938 31.32604111 42.91741394 32.42814423 42.90342712 33.56364441 C42.8850177 34.69044113 42.86660828 35.81723785 42.84764099 36.97817993 C42.76873011 41.81605771 42.70107381 46.65407857 42.63243103 51.49211121 C42.58084881 55.01602889 42.52354771 58.53982116 42.46592712 62.06364441 C42.45235168 63.16777176 42.43877625 64.27189911 42.42478943 65.40948486 C42.39971313 66.93127602 42.39971313 66.93127602 42.37413025 68.48381042 C42.35533813 69.83044518 42.35533813 69.83044518 42.33616638 71.20428467 C42.18467712 73.24723816 42.18467712 73.24723816 41.18467712 74.24723816 C37.87950779 74.4975979 34.56071671 74.43245768 31.24717712 74.43473816 C30.31454041 74.44698425 29.38190369 74.45923035 28.42100525 74.47184753 C27.08392517 74.47474792 27.08392517 74.47474792 25.71983337 74.47770691 C24.89878113 74.4818158 24.07772888 74.48592468 23.23179626 74.49015808 C21.18467712 74.24723816 21.18467712 74.24723816 19.18467712 72.24723816 C18.90620422 70.0705719 18.90620422 70.0705719 18.86582947 67.33854675 C18.84595978 66.31763947 18.82609009 65.29673218 18.80561829 64.24488831 C18.79406708 63.13964813 18.78251587 62.03440796 18.77061462 60.89567566 C18.7415654 59.20192307 18.7415654 59.20192307 18.71192932 57.47395325 C18.65200643 53.85679244 18.6056971 50.23960003 18.55967712 46.62223816 C18.52150907 44.17430738 18.48245805 41.7263902 18.44248962 39.27848816 C18.34629453 33.26819192 18.26128447 27.25781423 18.18467712 21.24723816 C13.4637781 19.90149109 8.79440817 20.29359077 3.9405365 20.54997253 C-1.26853509 20.68056207 -1.26853509 20.68056207 -3.79188538 18.68083191 C-5.175892 15.38985433 -5.17615651 12.68405528 -5.12782288 9.12223816 C-5.12395569 7.88216003 -5.1200885 6.64208191 -5.11610413 5.36442566 C-4.72500466 1.31121306 -4.09965379 0.36002651 0 0 Z M-1.81532288 2.24723816 C-1.81532288 7.52723816 -1.81532288 12.80723816 -1.81532288 18.24723816 C5.77467712 18.24723816 13.36467712 18.24723816 21.18467712 18.24723816 C21.17944031 19.87782166 21.17420349 21.50840515 21.16880798 23.18840027 C21.15076627 29.21345983 21.13924816 35.23851699 21.12974548 41.26359558 C21.12470336 43.87590435 21.11786987 46.48821027 21.10923767 49.10050964 C21.09716676 52.84604084 21.09144777 56.59153487 21.08702087 60.33708191 C21.08185959 61.51310471 21.0766983 62.6891275 21.07138062 63.90078735 C21.07130508 64.98183243 21.07122955 66.0628775 21.07115173 67.17668152 C21.06782082 68.6123069 21.06782082 68.6123069 21.06442261 70.07693481 C20.94155213 72.22641439 20.94155213 72.22641439 22.18467712 73.24723816 C28.12467712 72.91723816 34.06467712 72.58723816 40.18467712 72.24723816 C40.18467712 54.09723816 40.18467712 35.94723816 40.18467712 17.24723816 C48.10467712 17.24723816 56.02467712 17.24723816 64.18467712 17.24723816 C64.18467712 12.29723816 64.18467712 7.34723816 64.18467712 2.24723816 C42.40467712 2.24723816 20.62467712 2.24723816 -1.81532288 2.24723816 Z " fill="#AEAEAE" transform="translate(232.81532287597656,474.7527618408203)"/>
<path d="M0 0 C0.78052734 -0.00773437 1.56105469 -0.01546875 2.36523438 -0.0234375 C8.18414502 -0.00335498 8.18414502 -0.00335498 10.4375 2.25 C10.75634766 4.49658203 10.75634766 4.49658203 10.8515625 7.2578125 C10.89023437 8.24394531 10.92890625 9.23007812 10.96875 10.24609375 C10.9996875 11.27863281 11.030625 12.31117188 11.0625 13.375 C11.10117187 14.41527344 11.13984375 15.45554687 11.1796875 16.52734375 C11.27414766 19.10138311 11.35971214 21.67541155 11.4375 24.25 C12.10064209 24.03778809 12.76378418 23.82557617 13.44702148 23.60693359 C14.32946533 23.33187988 15.21190918 23.05682617 16.12109375 22.7734375 C16.99048584 22.49935059 17.85987793 22.22526367 18.75561523 21.94287109 C26.19275998 20.02146765 33.56955868 20.85812706 40.4375 24.25 C49.8777379 30.09027811 54.11767144 36.8840076 56.95703125 47.44140625 C58.51062084 56.52295843 56.65267363 66.17684793 51.70703125 73.98046875 C46.58197588 80.08757066 40.68626981 84.28098233 32.875 86.0625 C26.00251006 86.43736309 20.32918233 86.19729576 13.63671875 84.58984375 C11.26849023 84.05222649 11.26849023 84.05222649 8.4375 85.25 C5.59379549 85.34668595 2.7804273 85.38923837 -0.0625 85.375 C-0.83464844 85.37886719 -1.60679687 85.38273438 -2.40234375 85.38671875 C-5.70753737 85.38099051 -8.40627498 85.30207501 -11.5625 84.25 C-11.6319077 73.59311115 -11.68526419 62.93627578 -11.71793652 52.27920723 C-11.73361495 47.33107667 -11.75489277 42.38310036 -11.78881836 37.43505859 C-11.8213344 32.66291659 -11.8393366 27.89092325 -11.84713173 23.11867905 C-11.85268923 21.29493747 -11.86354119 19.47120433 -11.87969017 17.64752579 C-11.90136167 15.0996343 -11.90447129 12.55236285 -11.90307617 10.00439453 C-11.91925491 8.86503952 -11.91925491 8.86503952 -11.9357605 7.70266724 C-11.92326355 5.60354614 -11.92326355 5.60354614 -11.5625 2.25 C-7.69957629 -0.32528248 -4.47303122 -0.04454471 0 0 Z M-9.5625 3.25 C-9.5625 29.65 -9.5625 56.05 -9.5625 83.25 C-3.9525 83.25 1.6575 83.25 7.4375 83.25 C7.4375 81.6 7.4375 79.95 7.4375 78.25 C7.87835937 78.683125 8.31921875 79.11625 8.7734375 79.5625 C14.14294347 84.00622908 18.73707869 84.85282194 25.5 84.875 C26.63284424 84.89046875 26.63284424 84.89046875 27.78857422 84.90625 C35.42033801 84.72047353 41.96719162 81.5724622 47.4375 76.25 C54.79354954 66.09266415 55.72817226 56.53967883 54.4375 44.25 C52.49078058 36.78003013 47.81456364 31.45306467 41.4375 27.25 C34.40405333 23.42698141 27.81716959 21.90722079 19.98046875 23.86328125 C16.38455233 24.99608206 13.59594529 26.14436981 10.4375 28.25 C10.4375 28.91 10.4375 29.57 10.4375 30.25 C9.7775 30.25 9.1175 30.25 8.4375 30.25 C8.4375 21.34 8.4375 12.43 8.4375 3.25 C2.4975 3.25 -3.4425 3.25 -9.5625 3.25 Z " fill="#F1F2F1" transform="translate(718.5625,458.75)"/>
<path d="M0 0 C0.33 0 0.66 0 1 0 C1.33 4.29 1.66 8.58 2 13 C4.64 13.33 7.28 13.66 10 14 C10.01401855 15.20160767 10.01401855 15.20160767 10.02832031 16.42749023 C10.08238939 20.09809119 10.1659674 23.76746762 10.25 27.4375 C10.26417969 28.69755859 10.27835938 29.95761719 10.29296875 31.25585938 C10.55332727 41.22759056 12.20437047 48.4762673 19 56 C15.24708428 54.95752341 12.86891583 53.52922666 10.84765625 50.125 C6.6740884 39.66223082 7.77442176 27.05333357 8 16 C6.54263913 15.80508548 5.08405407 15.61930642 3.625 15.4375 C2.81289063 15.33308594 2.00078125 15.22867187 1.1640625 15.12109375 C-1.04899186 14.81762672 -1.04899186 14.81762672 -3 16 C-2.82597656 16.87785156 -2.65195312 17.75570313 -2.47265625 18.66015625 C-1.63144177 24.56052659 -2.15876853 30.5072476 -2.4375 36.4375 C-2.54170855 38.81113929 -2.64460607 41.18483656 -2.74609375 43.55859375 C-2.79362793 44.66831543 -2.84116211 45.77803711 -2.89013672 46.92138672 C-3.0220949 50.61914815 -3.04125845 54.30049262 -3 58 C-7.05264518 59.35088173 -10.81845796 59.223454 -15.0625 59.25 C-15.89072266 59.270625 -16.71894531 59.29125 -17.57226562 59.3125 C-18.76045898 59.32023438 -18.76045898 59.32023438 -19.97265625 59.328125 C-20.69718994 59.3374707 -21.42172363 59.34681641 -22.16821289 59.35644531 C-22.77270264 59.23881836 -23.37719238 59.12119141 -24 59 C-26.27717346 55.58423981 -26.24853592 54.37758054 -26.24291992 50.36694336 C-26.24599655 49.21242172 -26.24907318 48.05790009 -26.25224304 46.86839294 C-26.24505753 45.62147171 -26.23787201 44.37455048 -26.23046875 43.08984375 C-26.23001053 41.81146133 -26.22955231 40.53307892 -26.2290802 39.21595764 C-26.22605688 36.51159403 -26.21923853 33.80757058 -26.20581055 31.10327148 C-26.18880389 27.63401444 -26.18499679 24.16490294 -26.18575573 20.69560909 C-26.18541876 17.38950621 -26.17658294 14.08343394 -26.16796875 10.77734375 C-26.16685593 9.52839828 -26.1657431 8.27945282 -26.16459656 6.99266052 C-26.15821671 5.84129105 -26.15183685 4.68992157 -26.14526367 3.50366211 C-26.13954597 1.97835121 -26.13954597 1.97835121 -26.13371277 0.42222595 C-26 -2 -26 -2 -25 -4 C-16.42123844 -6.0970306 -6.9163066 -5.79474336 0 0 Z M-24 -2 C-24 17.47 -24 36.94 -24 57 C-18.06 57 -12.12 57 -6 57 C-6 37.53 -6 18.06 -6 -2 C-11.94 -2 -17.88 -2 -24 -2 Z " fill="#EFF0F0" transform="translate(807,485)"/>
<path d="M0 0 C2.1875 1.625 2.1875 1.625 4.1875 4.625 C4.86878624 9.74256871 4.98585056 14.199374 2.4375 18.75 C-1.47188715 22.00782263 -5.69950165 21.9168801 -10.62890625 21.8359375 C-13.7607044 21.53340244 -15.45655303 20.70377674 -17.8125 18.625 C-20.67889427 14.51650155 -21.30160723 11.3429683 -20.453125 6.51953125 C-19.06719516 2.42089726 -16.04485754 0.33847016 -12.4375 -1.75 C-7.87025301 -2.83743976 -4.17436408 -2.04080022 0 0 Z " fill="#6E7070" transform="translate(799.8125,455.375)"/>
<path d="M0 0 C3.49056668 1.16352223 3.87427697 1.8980945 5.8125 4.89453125 C6.33070313 5.68537109 6.84890625 6.47621094 7.3828125 7.29101562 C7.91648437 8.12310547 8.45015625 8.95519531 9 9.8125 C10.06157728 11.44461096 11.12404841 13.07614094 12.1875 14.70703125 C12.65542969 15.4338208 13.12335937 16.16061035 13.60546875 16.90942383 C14.99364773 19.04726692 14.99364773 19.04726692 16.67578125 21.14331055 C18 23 18 23 18 25 C18.66 25 19.32 25 20 25 C20 25.66 20 26.32 20 27 C2.06031051 28.89709298 2.06031051 28.89709298 -2.79589844 25.88671875 C-5.88516151 22.79105968 -7.74379153 19.14441426 -9 15 C-8.84043871 11.04895841 -6.24350572 8.32467429 -3.9375 5.25 C-2.83728516 3.77273438 -2.83728516 3.77273438 -1.71484375 2.265625 C-1.14894531 1.51796875 -0.58304688 0.7703125 0 0 Z " fill="#6C6E6E" transform="translate(684,516)"/>
<path d="M0 0 C17.69804052 -1.79109681 17.69804052 -1.79109681 22.921875 2.2734375 C25.35311474 6.02076156 27.08723813 8.98106048 26.890625 13.53125 C25.75563501 16.67736261 24.08471058 18.75629693 21.9375 21.3125 C21.20402344 22.19550781 20.47054687 23.07851563 19.71484375 23.98828125 C18.86599609 24.98408203 18.86599609 24.98408203 18 26 C14.22732268 24.74244089 13.83324743 23.54261272 11.8125 20.1875 C8.52450608 14.81992018 5.06202365 9.62560946 1.50390625 4.43359375 C0 2 0 2 0 0 Z " fill="#6B6C6C" transform="translate(641,483)"/>
<path d="M0 0 C1.27423828 -0.00193359 1.27423828 -0.00193359 2.57421875 -0.00390625 C3.91419922 0.00189453 3.91419922 0.00189453 5.28125 0.0078125 C6.17457031 0.00394531 7.06789063 0.00007813 7.98828125 -0.00390625 C8.83777344 -0.00261719 9.68726563 -0.00132812 10.5625 0 C11.34689453 0.00112793 12.13128906 0.00225586 12.93945312 0.00341797 C14.78125 0.1328125 14.78125 0.1328125 15.78125 1.1328125 C16.01778523 3.65877509 16.20298692 6.16388457 16.34375 8.6953125 C16.38693359 9.40623047 16.43011719 10.11714844 16.47460938 10.84960938 C16.58096777 12.61043162 16.68163846 14.3715957 16.78125 16.1328125 C18.17150391 16.11541016 18.17150391 16.11541016 19.58984375 16.09765625 C20.78738281 16.08863281 21.98492188 16.07960938 23.21875 16.0703125 C24.41371094 16.05871094 25.60867188 16.04710937 26.83984375 16.03515625 C29.78125 16.1328125 29.78125 16.1328125 30.78125 17.1328125 C30.85444621 19.82936104 30.87367537 22.49972708 30.84375 25.1953125 C30.83923828 25.95392578 30.83472656 26.71253906 30.83007812 27.49414062 C30.8182568 29.37373121 30.80032078 31.25328149 30.78125 33.1328125 C26.16125 33.4628125 21.54125 33.7928125 16.78125 34.1328125 C16.7542759 37.54953198 16.73442328 40.96603839 16.71875 44.3828125 C16.71037109 45.35089844 16.70199219 46.31898438 16.69335938 47.31640625 C16.69013672 48.25097656 16.68691406 49.18554688 16.68359375 50.1484375 C16.67835693 51.00727539 16.67312012 51.86611328 16.66772461 52.75097656 C16.77585014 55.01951994 17.14542577 56.95912965 17.78125 59.1328125 C19.78079746 59.17535606 21.78166636 59.17362033 23.78125 59.1328125 C24.11125 58.8028125 24.44125 58.4728125 24.78125 58.1328125 C26.44742115 58.09217418 28.11513095 58.0900915 29.78125 58.1328125 C29.97460938 58.74769531 30.16796875 59.36257813 30.3671875 59.99609375 C30.75777344 61.20845703 30.75777344 61.20845703 31.15625 62.4453125 C31.41148437 63.24582031 31.66671875 64.04632812 31.9296875 64.87109375 C32.76956811 67.36005778 32.76956811 67.36005778 34.78125 70.1328125 C34.65625 72.6953125 34.65625 72.6953125 33.78125 75.1328125 C30.24282242 77.6237951 26.21746029 77.65215265 22.03125 77.8828125 C20.96088501 77.94529175 20.96088501 77.94529175 19.86889648 78.0090332 C14.71774419 78.241332 10.57972743 77.99344661 5.78125 76.1328125 C5.28625 75.1428125 5.28625 75.1428125 4.78125 74.1328125 C5.61527344 74.29394531 6.44929687 74.45507812 7.30859375 74.62109375 C11.02887721 75.169302 14.58411183 75.30134359 18.34375 75.3203125 C19.62378906 75.33449219 20.90382813 75.34867188 22.22265625 75.36328125 C25.56946876 75.1465283 27.79087481 74.58495247 30.78125 73.1328125 C30.27925802 69.40372919 29.73917977 65.77133564 28.78125 62.1328125 C28.03359375 62.19082031 27.2859375 62.24882813 26.515625 62.30859375 C25.53078125 62.35371094 24.5459375 62.39882813 23.53125 62.4453125 C22.55671875 62.50332031 21.5821875 62.56132813 20.578125 62.62109375 C17.78125 62.1328125 17.78125 62.1328125 15.63085938 59.98828125 C13.45929414 56.63576976 13.31269659 54.9118983 13.390625 50.95703125 C13.40996094 49.22163086 13.40996094 49.22163086 13.4296875 47.45117188 C13.46320312 46.25298828 13.49671875 45.05480469 13.53125 43.8203125 C13.54929687 42.60279297 13.56734375 41.38527344 13.5859375 40.13085938 C13.6329914 37.13117295 13.70473203 34.13189198 13.78125 31.1328125 C18.73125 31.1328125 23.68125 31.1328125 28.78125 31.1328125 C28.78125 26.8428125 28.78125 22.5528125 28.78125 18.1328125 C24.16125 18.1328125 19.54125 18.1328125 14.78125 18.1328125 C14.78125 12.8528125 14.78125 7.5728125 14.78125 2.1328125 C8.51125 2.1328125 2.24125 2.1328125 -4.21875 2.1328125 C-4.21875 7.4128125 -4.21875 12.6928125 -4.21875 18.1328125 C-7.18875 18.1328125 -10.15875 18.1328125 -13.21875 18.1328125 C-12.88875 17.4728125 -12.55875 16.8128125 -12.21875 16.1328125 C-9.90875 16.1328125 -7.59875 16.1328125 -5.21875 16.1328125 C-5.23035156 15.06160156 -5.24195313 13.99039062 -5.25390625 12.88671875 C-5.26328299 11.48958507 -5.27238331 10.09244951 -5.28125 8.6953125 C-5.29381836 7.63473633 -5.29381836 7.63473633 -5.30664062 6.55273438 C-5.31528588 4.74587691 -5.27095011 2.93893647 -5.21875 1.1328125 C-3.66268249 -0.42325501 -2.15917629 0.00310481 0 0 Z " fill="#DBDBDB" transform="translate(821.21875,466.8671875)"/>
<path d="M0 0 C1.80535721 0.00666183 1.80535721 0.00666183 3.64718628 0.01345825 C4.31072113 0.0131662 4.97425598 0.01287415 5.65789795 0.01257324 C7.85481772 0.01396847 10.05139985 0.02953836 12.2482605 0.04519653 C13.76997696 0.04892599 15.29169581 0.05177328 16.81341553 0.05377197 C20.82150891 0.0614138 24.8294577 0.0810669 28.8374939 0.10317993 C32.92621911 0.12362659 37.01496766 0.13277116 41.10372925 0.14285278 C49.12853524 0.16431236 57.15322364 0.19845483 65.177948 0.24050903 C65.177948 0.57050903 65.177948 0.90050903 65.177948 1.24050903 C43.067948 1.24050903 20.957948 1.24050903 -1.822052 1.24050903 C-1.822052 6.85050903 -1.822052 12.46050903 -1.822052 18.24050903 C5.767948 18.24050903 13.357948 18.24050903 21.177948 18.24050903 C21.507948 36.06050903 21.837948 53.88050903 22.177948 72.24050903 C28.447948 72.57050903 34.717948 72.90050903 41.177948 73.24050903 C41.177948 73.57050903 41.177948 73.90050903 41.177948 74.24050903 C37.88635484 74.29841257 34.59489197 74.33407164 31.302948 74.36550903 C30.36579956 74.38226685 29.42865112 74.39902466 28.46310425 74.41629028 C27.56720581 74.4227356 26.67130737 74.42918091 25.7482605 74.43582153 C24.92084351 74.44629517 24.09342651 74.4567688 23.24093628 74.46755981 C21.177948 74.24050903 21.177948 74.24050903 19.177948 72.24050903 C18.8994751 70.06384277 18.8994751 70.06384277 18.85910034 67.33181763 C18.83923065 66.31091034 18.81936096 65.29000305 18.79888916 64.23815918 C18.78733795 63.13291901 18.77578674 62.02767883 18.7638855 60.88894653 C18.73483627 59.19519394 18.73483627 59.19519394 18.7052002 57.46722412 C18.6452773 53.85006331 18.59896797 50.2328709 18.552948 46.61550903 C18.51477994 44.16757826 18.47572892 41.71966108 18.4357605 39.27175903 C18.33956541 33.2614628 18.25455534 27.2510851 18.177948 21.24050903 C13.45704897 19.89476196 8.78767905 20.28686165 3.93380737 20.54324341 C-1.27526422 20.67383295 -1.27526422 20.67383295 -3.7986145 18.67410278 C-5.18262113 15.3831252 -5.18288564 12.67732615 -5.134552 9.11550903 C-5.13068481 7.87543091 -5.12681763 6.63535278 -5.12283325 5.35769653 C-4.73129985 1.29998674 -4.10538456 0.34988089 0 0 Z " fill="#FBFCFB" transform="translate(232.82205200195313,474.7594909667969)"/>
<path d="M0 0 C0.33 0 0.66 0 1 0 C1.33 7.26 1.66 14.52 2 22 C5.3 21.01 8.6 20.02 12 19 C22.41916175 18.22821024 29.91345118 20.31693052 37.9921875 27.05859375 C44.69504115 33.53975769 47.71332344 42.1797992 48.16796875 51.41015625 C47.71639379 61.0612584 44.8955537 69.3544463 38.02734375 76.22265625 C31.43736264 82 31.43736264 82 27 82 C27 81.34 27 80.68 27 80 C28.3303125 79.4121875 28.3303125 79.4121875 29.6875 78.8125 C36.65713726 74.99892489 41.60470896 68.56461573 44 61 C45.06557845 51.97148575 45.47041549 41.86187544 40.5390625 33.94140625 C35.16836925 27.16669928 28.33214927 22.94716182 19.67578125 21.65234375 C12.47582054 21.36334009 6.3470019 23.82649905 0 27 C0 18.09 0 9.18 0 0 Z " fill="#F0F1F0" transform="translate(728,461)"/>
<path d="M0 0 C4.11214188 2.36229427 5.62476665 4.5401844 7 9 C7.16527522 11.75192123 7.23365572 14.39663188 7.1953125 17.14453125 C7.1924826 17.91431808 7.18965271 18.68410492 7.18673706 19.47721863 C7.17559157 21.92247425 7.15049781 24.36735612 7.125 26.8125 C7.1149629 28.47590615 7.10583833 30.13931807 7.09765625 31.80273438 C7.07737688 35.86874748 7.03821867 39.93395811 7 44 C12.94 44 18.88 44 25 44 C25 44.33 25 44.66 25 45 C18.73 45 12.46 45 6 45 C5.25469535 39.78286745 4.91085698 35.0799953 5 29.875 C5.77528206 15.73386686 5.77528206 15.73386686 1 3 C-2.2000753 1.66663529 -4.18058453 2.02802174 -7.625 2.5625 C-11.09877195 3.71623623 -11.09877195 3.71623623 -12.875 6.4375 C-15.62480678 15.14522148 -15.111222 24.58265129 -15 33.625 C-14.97463853 35.76297191 -14.95355553 37.90100045 -14.9375 40.0390625 C-14.92589844 40.96928223 -14.91429687 41.89950195 -14.90234375 42.85791016 C-15 45 -15 45 -16 46 C-17.4887186 46.08669432 -18.981445 46.10703494 -20.47265625 46.09765625 C-21.37177734 46.09443359 -22.27089844 46.09121094 -23.19726562 46.08789062 C-24.61555664 46.07532227 -24.61555664 46.07532227 -26.0625 46.0625 C-27.01189453 46.05798828 -27.96128906 46.05347656 -28.93945312 46.04882812 C-31.29303065 46.0370011 -33.64648477 46.02052025 -36 46 C-36 45.67 -36 45.34 -36 45 C-29.73 45 -23.46 45 -17 45 C-17.10441406 41.11541016 -17.10441406 41.11541016 -17.2109375 37.15234375 C-17.25781178 34.6270793 -17.29419628 32.10186443 -17.32958984 29.57641602 C-17.35965146 27.82944837 -17.40051371 26.08263028 -17.45263672 24.33618164 C-17.5259298 21.81619293 -17.55956001 19.2982086 -17.5859375 16.77734375 C-17.61690521 16.00414291 -17.64787292 15.23094208 -17.67977905 14.43431091 C-17.68311613 8.98349828 -16.22022473 6.26881624 -12.48721313 2.32032776 C-8.87131841 -0.8898148 -4.59287821 -0.57212324 0 0 Z " fill="#EBEBEB" transform="translate(610,498)"/>
<path d="M0 0 C1.27423828 -0.00193359 1.27423828 -0.00193359 2.57421875 -0.00390625 C3.91419922 0.00189453 3.91419922 0.00189453 5.28125 0.0078125 C6.17457031 0.00394531 7.06789063 0.00007813 7.98828125 -0.00390625 C8.83777344 -0.00261719 9.68726563 -0.00132812 10.5625 0 C11.34689453 0.00112793 12.13128906 0.00225586 12.93945312 0.00341797 C14.78125 0.1328125 14.78125 0.1328125 15.78125 1.1328125 C16.01778523 3.65877509 16.20298692 6.16388457 16.34375 8.6953125 C16.38693359 9.40623047 16.43011719 10.11714844 16.47460938 10.84960938 C16.58096777 12.61043162 16.68163846 14.3715957 16.78125 16.1328125 C18.17150391 16.11541016 18.17150391 16.11541016 19.58984375 16.09765625 C20.78738281 16.08863281 21.98492188 16.07960938 23.21875 16.0703125 C24.41371094 16.05871094 25.60867188 16.04710937 26.83984375 16.03515625 C29.78125 16.1328125 29.78125 16.1328125 30.78125 17.1328125 C30.85444621 19.82936104 30.87367537 22.49972708 30.84375 25.1953125 C30.83923828 25.95392578 30.83472656 26.71253906 30.83007812 27.49414062 C30.8182568 29.37373121 30.80032078 31.25328149 30.78125 33.1328125 C26.16125 33.4628125 21.54125 33.7928125 16.78125 34.1328125 C16.45125 40.7328125 16.12125 47.3328125 15.78125 54.1328125 C15.45125 54.1328125 15.12125 54.1328125 14.78125 54.1328125 C14.78125 46.8728125 14.78125 39.6128125 14.78125 32.1328125 C19.73125 32.1328125 24.68125 32.1328125 29.78125 32.1328125 C29.78125 27.5128125 29.78125 22.8928125 29.78125 18.1328125 C24.83125 18.1328125 19.88125 18.1328125 14.78125 18.1328125 C14.78125 12.8528125 14.78125 7.5728125 14.78125 2.1328125 C8.51125 2.1328125 2.24125 2.1328125 -4.21875 2.1328125 C-4.21875 7.4128125 -4.21875 12.6928125 -4.21875 18.1328125 C-7.18875 18.1328125 -10.15875 18.1328125 -13.21875 18.1328125 C-12.88875 17.4728125 -12.55875 16.8128125 -12.21875 16.1328125 C-9.90875 16.1328125 -7.59875 16.1328125 -5.21875 16.1328125 C-5.23035156 15.06160156 -5.24195313 13.99039062 -5.25390625 12.88671875 C-5.26328299 11.48958507 -5.27238331 10.09244951 -5.28125 8.6953125 C-5.29381836 7.63473633 -5.29381836 7.63473633 -5.30664062 6.55273438 C-5.31528588 4.74587691 -5.27095011 2.93893647 -5.21875 1.1328125 C-3.66268249 -0.42325501 -2.15917629 0.00310481 0 0 Z " fill="#FAFAFA" transform="translate(821.21875,466.8671875)"/>
<path d="M0 0 C4.21009837 1.32540134 5.6652758 2.56838196 8.375 6.0625 C10.6586977 10.57256409 10.6691622 15.06288868 10 20 C8.11130184 25.36787898 5.08016831 28.45991584 0 31 C-4.67470792 31.57031437 -8.12316498 31.43841751 -12.375 29.3125 C-15.94033739 26.17160753 -17.77164148 23.64376992 -18.43359375 18.87890625 C-18.44676819 7.69381086 -18.44676819 7.69381086 -14 3 C-9.59105181 -0.90238819 -5.64893426 -0.63461129 0 0 Z M-13 4 C-16.01796829 7.74644339 -16.75357854 11.23585171 -17 16 C-16.22517619 21.52061965 -14.31344271 24.55554837 -9.9921875 27.890625 C-6.59053236 29.78488002 -3.74440902 29.99655504 0 29 C3.96518163 26.983029 6.56986564 25.29040307 8 21 C8.11880354 19.1903182 8.1751965 17.37603553 8.1875 15.5625 C8.20876953 14.14130859 8.20876953 14.14130859 8.23046875 12.69140625 C7.99614518 9.95498356 7.39701383 8.33571877 6 6 C5.34 6 4.68 6 4 6 C3.63648438 5.03900391 3.63648438 5.03900391 3.265625 4.05859375 C2.19667117 1.84313341 2.19667117 1.84313341 0.046875 1.28515625 C-5.15399059 0.78099071 -8.56840816 0.83457726 -13 4 Z " fill="#F2F2F1" transform="translate(745,498)"/>
<path d="M0 0 C0.33 0 0.66 0 1 0 C1 13.86 1 27.72 1 42 C-16 42 -16 42 -19 40 C-21.21250343 40.42497025 -21.21250343 40.42497025 -23.5625 41.375 C-33.45192869 44.59481399 -41.70682918 43.14658541 -50.875 38.5625 C-53.18794786 36.86180304 -54.59753907 35.50966694 -56 33 C-56.1875 30.25 -56.1875 30.25 -56 28 C-55.5875 28.556875 -55.175 29.11375 -54.75 29.6875 C-54.1725 30.450625 -53.595 31.21375 -53 32 C-52.401875 32.845625 -51.80375 33.69125 -51.1875 34.5625 C-47.74006971 38.40392232 -44.06485305 40.11236889 -38.94140625 40.43359375 C-37.48187017 40.45067203 -36.02206697 40.45169561 -34.5625 40.4375 C-33.83740234 40.45748047 -33.11230469 40.47746094 -32.36523438 40.49804688 C-26.82776242 40.49307161 -23.55439083 39.1557521 -19 36 C-18.505 35.01 -18.505 35.01 -18 34 C-17.34 34 -16.68 34 -16 34 C-16 35.98 -16 37.96 -16 40 C-10.72 40 -5.44 40 0 40 C0 26.8 0 13.6 0 0 Z " fill="#D6D6D6" transform="translate(561,502)"/>
<path d="M0 0 C1.18335938 0.0009668 1.18335938 0.0009668 2.390625 0.00195312 C8.2346388 0.0471388 8.2346388 0.0471388 9.375 1.1875 C9.53358842 3.33136657 9.62629298 5.48016838 9.69140625 7.62890625 C9.73330078 8.93408203 9.77519531 10.23925781 9.81835938 11.58398438 C9.85817608 12.9726533 9.89788825 14.36132522 9.9375 15.75 C9.98067989 17.14259183 10.024294 18.53517028 10.06835938 19.92773438 C10.17485876 23.34754801 10.27686923 26.76743763 10.375 30.1875 C9.715 30.1875 9.055 30.1875 8.375 30.1875 C8.375 21.2775 8.375 12.3675 8.375 3.1875 C2.435 3.1875 -3.505 3.1875 -9.625 3.1875 C-9.625 29.2575 -9.625 55.3275 -9.625 82.1875 C-9.955 82.1875 -10.285 82.1875 -10.625 82.1875 C-10.82493523 71.79160228 -11.00868669 61.39555799 -11.17158794 50.99901009 C-11.24773652 46.17184428 -11.32952816 41.34490974 -11.42407227 36.51806641 C-11.51505047 31.86279796 -11.59139361 27.2075015 -11.65744972 22.55181503 C-11.68529288 20.77266311 -11.71847363 18.99358671 -11.75699425 17.21463394 C-11.80991512 14.72917579 -11.84411317 12.24412967 -11.8737793 9.75830078 C-11.89391586 9.01743225 -11.91405243 8.27656372 -11.93479919 7.51324463 C-11.94779968 5.46511841 -11.94779968 5.46511841 -11.625 2.1875 C-7.74243359 -0.40087761 -4.49276783 -0.07043118 0 0 Z " fill="#DCDCDC" transform="translate(718.625,458.8125)"/>
<path d="M0 0 C4.95 0.33 9.9 0.66 15 1 C14.34 1.66 13.68 2.32 13 3 C8.71 3 4.42 3 0 3 C0 22.8 0 42.6 0 63 C-0.66 62.67 -1.32 62.34 -2 62 C-2.04636562 54.50685393 -2.08189069 47.01372276 -2.10362434 39.52046585 C-2.11405608 36.04093606 -2.12820401 32.56150451 -2.15087891 29.08203125 C-2.17679095 25.08071963 -2.18647782 21.07951103 -2.1953125 17.078125 C-2.20563507 15.83009094 -2.21595764 14.58205688 -2.22659302 13.29620361 C-2.22674408 12.13530212 -2.22689514 10.97440063 -2.22705078 9.77832031 C-2.231492 8.75683899 -2.23593323 7.73535767 -2.24050903 6.68292236 C-2 4 -2 4 0 0 Z " fill="#FCFCFC" transform="translate(574,480)"/>
<path d="M0 0 C2.1875 1.625 2.1875 1.625 4.1875 4.625 C4.86878624 9.74256871 4.98585056 14.199374 2.4375 18.75 C-1.47188715 22.00782263 -5.69950165 21.9168801 -10.62890625 21.8359375 C-13.7607044 21.53340244 -15.45655303 20.70377674 -17.8125 18.625 C-20.67889427 14.51650155 -21.30160723 11.3429683 -20.453125 6.51953125 C-19.06719516 2.42089726 -16.04485754 0.33847016 -12.4375 -1.75 C-7.87025301 -2.83743976 -4.17436408 -2.04080022 0 0 Z M-17.8125 4.625 C-19.38705739 7.77411479 -19.16049118 10.14508816 -18.8125 13.625 C-16.91918897 17.31202305 -16.91918897 17.31202305 -13.8125 19.625 C-8.56528165 20.65556312 -4.30279898 20.51917939 0.3125 17.75 C2.74656631 14.99139152 3.14881343 14.03507769 3.5 10.3125 C3.13768869 6.03722654 2.22603708 4.57672173 -0.8125 1.625 C-7.26587336 -0.52612445 -12.94056959 -0.55142606 -17.8125 4.625 Z " fill="#F3F2F2" transform="translate(799.8125,455.375)"/>
<path d="M0 0 C1.11761719 0.02707031 1.11761719 0.02707031 2.2578125 0.0546875 C4.08909701 0.10164351 5.91971649 0.17338348 7.75 0.25 C8.046875 6.890625 8.046875 6.890625 5.375 10.125 C0.90447498 13.74399644 -2.63817711 13.78825655 -8.25 13.25 C-10.8125 12.125 -10.8125 12.125 -12.25 10.25 C-12.84762075 6.73897807 -12.78579691 5.01917237 -10.734375 2.07421875 C-7.26449766 -0.47363144 -4.12200937 -0.18935025 0 0 Z M-10.25 4.25 C-10.25 5.9 -10.25 7.55 -10.25 9.25 C-5.83989896 10.66123233 -1.33240077 10.85280022 3.125 9.5625 C5.00832685 8.29884835 5.00832685 8.29884835 5.5 5.625 C5.5825 4.84125 5.665 4.0575 5.75 3.25 C0.88967663 0.81983831 -5.57009053 1.83456286 -10.25 4.25 Z " fill="#F7F7F6" transform="translate(535.25,517.75)"/>
<path d="M0 0 C8.25 0 16.5 0 25 0 C25 0.33 25 0.66 25 1 C13.615 1.99 13.615 1.99 2 3 C1.67 22.14 1.34 41.28 1 61 C0.67 61 0.34 61 0 61 C0 40.87 0 20.74 0 0 Z " fill="#DFDFDF" transform="translate(436,481)"/>
<path d="M0 0 C3.99647776 0.66283046 6.9476125 2.66376413 10.375 4.75 C17.29669063 8.81703854 24.28628551 11.70767581 32 14 C33.02738281 14.30808594 34.05476563 14.61617187 35.11328125 14.93359375 C46.82489851 17.92227264 58.98077494 17.74375975 71 18 C71 18.33 71 18.66 71 19 C52.39937302 23.26335997 29.43126658 17.9420155 13 9 C12.01 8.48824219 11.02 7.97648438 10 7.44921875 C2.2576769 3.38651535 2.2576769 3.38651535 0 0 Z " fill="#F5F5F5" transform="translate(206,588)"/>
<path d="M0 0 C18.18432281 0.45152946 32.67697801 10.51630841 45.0078125 23.0390625 C49.0726178 27.455799 52.85635743 32.33944383 55 38 C54.67 38.99 54.34 39.98 54 41 C53.64808594 40.38253906 53.29617188 39.76507813 52.93359375 39.12890625 C41.50020564 19.51601856 27.25677939 8.43356495 5.328125 2.24609375 C3.56010316 1.79781871 1.78136624 1.39190057 0 1 C0 0.67 0 0.34 0 0 Z " fill="#F4F4F4" transform="translate(273,440)"/>
<path d="M0 0 C0 0.33 0 0.66 0 1 C-0.8657666 0.98428955 -1.7315332 0.9685791 -2.62353516 0.95239258 C-5.9076158 0.90055249 -9.19124742 0.86331158 -12.47558594 0.83520508 C-13.88353435 0.82033238 -15.2914383 0.80002781 -16.69921875 0.77368164 C-25.41514091 0.61492734 -33.30116984 1.14015881 -41.82958984 3.25268555 C-45.20533466 4.04840054 -48.56230441 4.55288834 -52 5 C-51 3 -51 3 -47.40625 1.7109375 C-33.22439798 -2.32853508 -14.07376648 -6.02125061 0 0 Z " fill="#F9F9F9" transform="translate(283,414)"/>
<path d="M0 0 C7.92 0 15.84 0 24 0 C24 0.66 24 1.32 24 2 C17.07 2 10.14 2 3 2 C1.76788052 4.46423896 1.84220092 6.15234663 1.79467773 8.90869141 C1.7647599 10.44005234 1.7647599 10.44005234 1.73423767 12.00234985 C1.71752518 13.10759003 1.70081268 14.2128302 1.68359375 15.3515625 C1.66281265 16.4807309 1.64203156 17.60989929 1.62062073 18.77328491 C1.55508665 22.39045972 1.49622226 26.00770881 1.4375 29.625 C1.39431846 32.07292444 1.35070429 34.52084128 1.30664062 36.96875 C1.19940133 42.9790875 1.09764213 48.98949935 1 55 C0.67 55 0.34 55 0 55 C0 36.85 0 18.7 0 0 Z " fill="#FCFCFB" transform="translate(274,493)"/>
<path d="M0 0 C0.66 0 1.32 0 2 0 C3.14315747 2.28631494 3.12112732 3.54347406 3.11352539 6.08251953 C3.11344986 6.92324005 3.11337433 7.76396057 3.11329651 8.63015747 C3.10555458 9.99272171 3.10555458 9.99272171 3.09765625 11.3828125 C3.0962413 12.31221649 3.09482635 13.24162048 3.09336853 14.19918823 C3.08776053 17.17449124 3.07520668 20.14971964 3.0625 23.125 C3.05748603 25.13932183 3.05292295 27.15364484 3.04882812 29.16796875 C3.0377885 34.11200802 3.02051849 39.05599135 3 44 C2.34 44 1.68 44 1 44 C0.67 29.48 0.34 14.96 0 0 Z " fill="#FCFCFC" transform="translate(561,499)"/>
<path d="M0 0 C0.33 0 0.66 0 1 0 C1.66 4.95 2.32 9.9 3 15 C5.97 15.33 8.94 15.66 12 16 C11.67 16.66 11.34 17.32 11 18 C8.03 18 5.06 18 2 18 C2 27.24 2 36.48 2 46 C1.67 46 1.34 46 1 46 C0.67 37.09 0.34 28.18 0 19 C-3.63 18.67 -7.26 18.34 -11 18 C-11 17.67 -11 17.34 -11 17 C-7.7 16.67 -4.4 16.34 -1 16 C-0.67 10.72 -0.34 5.44 0 0 Z " fill="#FDFDFD" transform="translate(462,465)"/>
<path d="M0 0 C3.36045627 4.48060836 3.3334606 5.3391069 3.07421875 10.671875 C2.99204102 12.62867188 2.99204102 12.62867188 2.90820312 14.625 C2.83517107 16.00002855 2.76159929 17.37502854 2.6875 18.75 C2.62416719 20.10930668 2.56230373 21.46868266 2.50195312 22.828125 C2.38605015 25.41620024 2.26628036 28.00410608 2.14208984 30.59179688 C1.98322479 34.40237457 1.94623022 38.18723373 2 42 C1.01 41.67 0.02 41.34 -1 41 C-0.67 27.47 -0.34 13.94 0 0 Z " fill="#FDFDFD" transform="translate(802,501)"/>
<path d="M0 0 C0.33 0 0.66 0 1 0 C1.33 7.26 1.66 14.52 2 22 C5.3 21.01 8.6 20.02 12 19 C15.1640625 18.70703125 15.1640625 18.70703125 17.625 18.8125 C18.88183594 18.85310547 18.88183594 18.85310547 20.1640625 18.89453125 C20.76992188 18.92933594 21.37578125 18.96414063 22 19 C22.33 19.66 22.66 20.32 23 21 C22.01 21.09796875 21.02 21.1959375 20 21.296875 C18.66657665 21.44711988 17.33324801 21.59820706 16 21.75 C14.0509375 21.95882813 14.0509375 21.95882813 12.0625 22.171875 C7.15738304 22.98872455 7.15738304 22.98872455 0 27 C0 18.09 0 9.18 0 0 Z " fill="#F9F8F8" transform="translate(728,461)"/>
<path d="M0 0 C0.33 0 0.66 0 1 0 C1.1678363 6.39021392 1.32779785 12.78058948 1.48217773 19.17114258 C1.53568301 21.34696968 1.59101865 23.52275255 1.64819336 25.69848633 C1.72986715 28.81842506 1.80504532 31.93846153 1.87890625 35.05859375 C1.90594131 36.03775253 1.93297638 37.01691132 1.96083069 38.02574158 C1.98092697 38.92659988 2.00102325 39.82745819 2.02172852 40.75561523 C2.04171402 41.55281479 2.06169952 42.35001434 2.08229065 43.17137146 C2 45 2 45 1 46 C-0.56172745 46.08685603 -2.12729344 46.10702219 -3.69140625 46.09765625 C-4.63564453 46.09443359 -5.57988281 46.09121094 -6.55273438 46.08789062 C-7.54595703 46.07951172 -8.53917969 46.07113281 -9.5625 46.0625 C-10.55958984 46.05798828 -11.55667969 46.05347656 -12.58398438 46.04882812 C-15.05604849 46.03700007 -17.52799518 46.02051849 -20 46 C-20 45.67 -20 45.34 -20 45 C-13.73 44.67 -7.46 44.34 -1 44 C-0.67 29.48 -0.34 14.96 0 0 Z " fill="#FEFEFD" transform="translate(437,498)"/>
<path d="M0 0 C10.35847708 2.54332095 19.36859716 5.65040212 28.21484375 11.6796875 C27.88484375 12.3396875 27.55484375 12.9996875 27.21484375 13.6796875 C26.28285156 13.22078125 25.35085938 12.761875 24.390625 12.2890625 C14.64039606 7.56705931 4.92422334 3.68034083 -5.78515625 1.6796875 C-2.78515625 -0.3203125 -2.78515625 -0.3203125 0 0 Z " fill="#EEEEEE" transform="translate(285.78515625,414.3203125)"/>
<path d="M0 0 C1.41623216 -0.05447047 2.83308191 -0.09300508 4.25 -0.125 C5.03890625 -0.14820313 5.8278125 -0.17140625 6.640625 -0.1953125 C9 0 9 0 11.0625 1.0625 C14.2529511 2.60626666 16.80414937 1.10625599 20 0 C20.66 0.66 21.32 1.32 22 2 C21.30132812 2.25394531 20.60265625 2.50789063 19.8828125 2.76953125 C18.97273438 3.11371094 18.06265625 3.45789063 17.125 3.8125 C16.22007812 4.14894531 15.31515625 4.48539062 14.3828125 4.83203125 C11.70574151 5.89649024 11.70574151 5.89649024 10 9 C9.34 9 8.68 9 8 9 C8 6.69 8 4.38 8 2 C5.03 2 2.06 2 -1 2 C-0.67 1.34 -0.34 0.68 0 0 Z " fill="#F3F3F3" transform="translate(474,481)"/>
<path d="M0 0 C5.98767996 1.34722799 9.87179588 4.63485701 14 9 C16.41213225 12.84433578 17 14.4294025 17 19 C16.34 19 15.68 19 15 19 C14.78085937 18.40832031 14.56171875 17.81664062 14.3359375 17.20703125 C11.45465326 10.02724572 8.33431748 6.34794827 1.125 3.1875 C0.09375 2.795625 -0.9375 2.40375 -2 2 C-1.34 1.34 -0.68 0.68 0 0 Z " fill="#F0F0EF" transform="translate(619,481)"/>
<path d="M0 0 C0 0.66 0 1.32 0 2 C-1.2375 3.0828125 -1.2375 3.0828125 -2.5 4.1875 C-5.29300107 6.82236305 -5.29300107 6.82236305 -5.5625 10.5 C-4.88145481 14.73761454 -4.30838297 16.24301419 -1 19 C2.29821703 19.99256688 5.58700601 20.56360573 9 21 C9 21.33 9 21.66 9 22 C-0.9375 22.58455882 -0.9375 22.58455882 -5 19 C-7.86666526 14.89111313 -8.47638346 11.72621664 -7.65234375 6.90234375 C-6.45207286 3.4021526 -3.89253753 0 0 0 Z " fill="#F5F6F5" transform="translate(787,455)"/>
<path d="M0 0 C0.9583374 0.00523682 1.9166748 0.01047363 2.90405273 0.01586914 C4.45576172 0.02070313 4.45576172 0.02070313 6.03881836 0.02563477 C7.12743164 0.03401367 8.21604492 0.04239258 9.33764648 0.05102539 C10.97636719 0.05779297 10.97636719 0.05779297 12.64819336 0.06469727 C15.35723144 0.07652713 18.06616248 0.09300996 20.77514648 0.11352539 C20.77514648 0.44352539 20.77514648 0.77352539 20.77514648 1.11352539 C9.39014648 2.10352539 9.39014648 2.10352539 -2.22485352 3.11352539 C-2.22485352 7.73352539 -2.22485352 12.35352539 -2.22485352 17.11352539 C-2.55485352 17.11352539 -2.88485352 17.11352539 -3.22485352 17.11352539 C-3.2517003 14.46762525 -3.27161708 11.82199443 -3.28735352 9.17602539 C-3.29573242 8.4212793 -3.30411133 7.6665332 -3.31274414 6.88891602 C-3.32137792 4.96358226 -3.27709684 3.03816958 -3.22485352 1.11352539 C-2.22485352 0.11352539 -2.22485352 0.11352539 0 0 Z " fill="#E9E9E9" transform="translate(440.224853515625,480.886474609375)"/>
<path d="M0 0 C1.13308594 -0.03738281 2.26617188 -0.07476562 3.43359375 -0.11328125 C7.15121413 0.39261216 8.25563903 1.43884273 10.5625 4.3125 C9.3559375 4.065 9.3559375 4.065 8.125 3.8125 C0.83756527 2.78970214 -6.1659982 3.38913469 -13.4375 4.3125 C-8.97484741 0.77315484 -5.66134535 0.12209485 0 0 Z " fill="#EFEFEF" transform="translate(530.4375,496.6875)"/>
<path d="M0 0 C0 0.99 0 1.98 0 3 C-2.8413818 5.8413818 -5.80178985 5.54428412 -9.625 5.75 C-10.70890015 5.81247925 -10.70890015 5.81247925 -11.81469727 5.8762207 C-16.9190498 6.10350277 -21.18261575 5.86796532 -26 4 C-26.33 3.34 -26.66 2.68 -27 2 C-26.1646875 2.15984375 -25.329375 2.3196875 -24.46875 2.484375 C-20.77526535 3.0334065 -17.23332113 3.20447169 -13.5 3.25 C-12.2315625 3.27578125 -10.963125 3.3015625 -9.65625 3.328125 C-5.75926971 2.978396 -3.34972697 1.96434606 0 0 Z " fill="#EDEEED" transform="translate(853,539)"/>
<path d="M0 0 C0.33 0.99 0.66 1.98 1 3 C-4.25442525 7.76636599 -9.50216911 12.51492743 -15 17 C-15 14 -15 14 -12.734375 11.40625 C-11.74721061 10.42972889 -10.7520431 9.46124745 -9.75 8.5 C-9.25886719 8.01402344 -8.76773438 7.52804687 -8.26171875 7.02734375 C-5.64552984 4.46696687 -2.99292648 2.10930056 0 0 Z " fill="#EDEDED" transform="translate(204,432)"/>
<path d="M0 0 C0.66 0 1.32 0 2 0 C0.10280671 5.69157988 -2.8524154 10.52055283 -7.8125 13.9375 C-8.534375 14.288125 -9.25625 14.63875 -10 15 C-8.37940026 11.45493808 -6.27370948 8.40978743 -4 5.25 C-3.29875 4.26515625 -2.5975 3.2803125 -1.875 2.265625 C-0.946875 1.14414062 -0.946875 1.14414062 0 0 Z M-11 15 C-11 15.99 -11 16.98 -11 18 C-11.99 18.66 -12.98 19.32 -14 20 C-12.125 16.125 -12.125 16.125 -11 15 Z " fill="#EBEBEB" transform="translate(692,498)"/>
<path d="M0 0 C1.99185668 3.48768679 2.23509058 5.93340292 1.6171875 9.96484375 C0.55449959 13.46902349 -1.42696846 15.42696846 -4 18 C-6.40545638 19.20272819 -7.94996953 19.10071472 -10.625 19.0625 C-11.85089844 19.04896484 -11.85089844 19.04896484 -13.1015625 19.03515625 C-13.72804688 19.02355469 -14.35453125 19.01195312 -15 19 C-15 18.67 -15 18.34 -15 18 C-14.39671875 17.89042969 -13.7934375 17.78085937 -13.171875 17.66796875 C-12.37265625 17.50941406 -11.5734375 17.35085938 -10.75 17.1875 C-9.96109375 17.03667969 -9.1721875 16.88585937 -8.359375 16.73046875 C-5.56484613 15.86527521 -4.04246574 15.11413121 -2 13 C-1.08354103 9.82398792 -1.08354103 9.82398792 -0.75 6.3125 C-0.60046875 5.13300781 -0.4509375 3.95351563 -0.296875 2.73828125 C-0.19890625 1.83464844 -0.1009375 0.93101562 0 0 Z " fill="#F5F5F5" transform="translate(753,509)"/>
<path d="M0 0 C3.7352474 1.24508247 4.60058531 2.94619949 7 6 C10.35024126 9.2347157 13.43390665 9.56095256 18 10 C18 10.33 18 10.66 18 11 C13.28809898 11.37695208 9.92629407 11.46314703 5.625 9.3125 C3.01455488 7.01282215 1.48338388 5.1315882 0 2 C0 1.34 0 0.68 0 0 Z " fill="#E5E5E5" transform="translate(727,518)"/>
<path d="M0 0 C2.55608498 0.43998184 4.89317562 0.98008604 7.375 1.6875 C8.04789063 1.86216797 8.72078125 2.03683594 9.4140625 2.21679688 C13.1788136 3.25062124 16.07085637 4.39381323 19 7 C11.64987044 6.42351925 4.98575424 4.28953836 -2 2 C-1.34 1.34 -0.68 0.68 0 0 Z " fill="#EDEDEC" transform="translate(237,574)"/>
<path d="M0 0 C0.80244141 0.04833984 1.60488281 0.09667969 2.43164062 0.14648438 C3.68170898 0.2305957 3.68170898 0.2305957 4.95703125 0.31640625 C6.22450195 0.3947168 6.22450195 0.3947168 7.51757812 0.47460938 C9.60189424 0.60414314 11.68576307 0.74083802 13.76953125 0.87890625 C13.76953125 1.20890625 13.76953125 1.53890625 13.76953125 1.87890625 C7.3872618 2.70242489 1.20208526 2.99976843 -5.23046875 2.87890625 C-5.56046875 3.53890625 -5.89046875 4.19890625 -6.23046875 4.87890625 C-6.56046875 3.55890625 -6.89046875 2.23890625 -7.23046875 0.87890625 C-4.35516794 -0.07952735 -2.93996944 -0.18765762 0 0 Z " fill="#FBFAFA" transform="translate(646.23046875,480.12109375)"/>
<path d="M0 0 C5.28 0 10.56 0 16 0 C12.47844036 2.34770643 10.49228157 2.37669614 6.3125 2.625 C5.13300781 2.69976562 3.95351563 2.77453125 2.73828125 2.8515625 C1.83464844 2.90054687 0.93101562 2.94953125 0 3 C0 2.01 0 1.02 0 0 Z " fill="#FAFAFA" transform="translate(682,481)"/>
<path d="M0 0 C0.33 0 0.66 0 1 0 C1.06058594 0.69867188 1.12117187 1.39734375 1.18359375 2.1171875 C1.26738281 3.02726562 1.35117187 3.93734375 1.4375 4.875 C1.51871094 5.77992188 1.59992187 6.68484375 1.68359375 7.6171875 C1.86989285 10.01110861 1.86989285 10.01110861 3 12 C5.58605332 12.4683265 5.58605332 12.4683265 8.5625 12.625 C9.57441406 12.69976562 10.58632813 12.77453125 11.62890625 12.8515625 C12.80259766 12.92503906 12.80259766 12.92503906 14 13 C14 13.33 14 13.66 14 14 C9.38 14 4.76 14 0 14 C0 9.38 0 4.76 0 0 Z " fill="#F1F1F1" transform="translate(836,471)"/>
<path d="M0 0 C0.66 0 1.32 0 2 0 C2 2.31 2 4.62 2 7 C1.01 6.67 0.02 6.34 -1 6 C-3.14255793 6.38932856 -3.14255793 6.38932856 -5 7 C-5.33 6.34 -5.66 5.68 -6 5 C-5.195625 4.54625 -4.39125 4.0925 -3.5625 3.625 C-0.91143428 2.25274335 -0.91143428 2.25274335 0 0 Z " fill="#E3E3E3" transform="translate(543,536)"/>
<path d="M0 0 C2 3 2 3 3.375 5.875 C4.96758845 8.9376701 6.76605978 11.38089767 9 14 C5.49188148 13.02552263 4.06595224 12.07842969 1.6875 9.25 C-0.11001082 5.78812732 -0.36516955 3.83428028 0 0 Z " fill="#ECECEC" transform="translate(817,527)"/>
<path d="M0 0 C3.01246242 1.50623121 3.36585787 3.85583487 4.46875 6.921875 C5.14032349 9.54891247 4.8765333 11.45008494 4 14 C1.51787516 9.39033958 0 5.27072485 0 0 Z " fill="#EAEAEA" transform="translate(354,475)"/>
<path d="M0 0 C0.66 0 1.32 0 2 0 C0.92598892 2.91517292 0.22189824 4.77810176 -2 7 C-4.6015625 7.1953125 -4.6015625 7.1953125 -7.625 7.125 C-9.12933594 7.09792969 -9.12933594 7.09792969 -10.6640625 7.0703125 C-11.43492187 7.04710937 -12.20578125 7.02390625 -13 7 C-13 6.67 -13 6.34 -13 6 C-11.96939453 5.85304688 -11.96939453 5.85304688 -10.91796875 5.703125 C-10.01691406 5.55359375 -9.11585938 5.4040625 -8.1875 5.25 C-7.29417969 5.11078125 -6.40085937 4.9715625 -5.48046875 4.828125 C-2.47551322 3.82489575 -1.73755208 2.56719406 0 0 Z " fill="#E2E3E3" transform="translate(802,469)"/>
<path d="M0 0 C3 1 3 1 4 3 C4.0716735 5.55157655 4.09308442 8.07472971 4.0625 10.625 C4.05798828 11.33140625 4.05347656 12.0378125 4.04882812 12.765625 C4.03703875 14.51045275 4.01910324 16.255237 4 18 C3.67 18 3.34 18 3 18 C2.92652344 16.67935547 2.92652344 16.67935547 2.8515625 15.33203125 C2.77679687 14.17058594 2.70203125 13.00914062 2.625 11.8125 C2.55539062 10.66394531 2.48578125 9.51539063 2.4140625 8.33203125 C2.02490426 5.20040883 1.3190149 2.84714191 0 0 Z " fill="#F9F9F9" transform="translate(612,501)"/>
<path d="M0 0 C3.35915158 1.43963639 5.71624938 3.12416589 8 6 C7.75 8.25 7.75 8.25 7 10 C2 4.25 2 4.25 2 2 C1.01 1.67 0.02 1.34 -1 1 C-0.67 0.67 -0.34 0.34 0 0 Z " fill="#EBEBEB" transform="translate(182,479)"/>
<path d="M0 0 C0.66 0.33 1.32 0.66 2 1 C0.49946106 4.11650396 -1.06181958 7.13149298 -3 10 C-3.99 10.33 -4.98 10.66 -6 11 C-4.18690997 7.22272911 -2.0926741 3.62730178 0 0 Z " fill="#EAEAEA" transform="translate(667,531)"/>
<path d="M0 0 C0.33 0.66 0.66 1.32 1 2 C0.01 3.485 0.01 3.485 -1 5 C-1.16713569 7.62531524 -1.16713569 7.62531524 -1 10 C-2.32 9.67 -3.64 9.34 -5 9 C-3.90931332 5.22454612 -3.0916909 2.52956528 0 0 Z " fill="#F0F0F0" transform="translate(154,510)"/>
<path d="M0 0 C2.64 0 5.28 0 8 0 C6.75 2 6.75 2 5 4 C3.68 4 2.36 4 1 4 C0.67 2.68 0.34 1.36 0 0 Z " fill="#F7F7F7" transform="translate(511,501)"/>
<path d="M0 0 C-1.97420135 2.52259061 -2.96745642 2.9929808 -6.1875 3.6875 C-7.5796875 3.8421875 -7.5796875 3.8421875 -9 4 C-9 3.34 -9 2.68 -9 2 C-5.5647952 -0.29013653 -4.014669 -0.17842973 0 0 Z " fill="#EEEEED" transform="translate(533,518)"/>
<path d="M0 0 C0.66 0.33 1.32 0.66 2 1 C0.35 3.64 -1.3 6.28 -3 9 C-3.33 7.68 -3.66 6.36 -4 5 C-2.0625 2.25 -2.0625 2.25 0 0 Z " fill="#F2F2F1" transform="translate(597,501)"/>
<path d="M0 0 C5.66153846 2.46153846 5.66153846 2.46153846 7.375 5.1875 C7.58125 5.785625 7.7875 6.38375 8 7 C1.125 3.375 1.125 3.375 0 0 Z " fill="#F7F7F7" transform="translate(314,426)"/>
<path d="M0 0 C6.64583333 2.29166667 6.64583333 2.29166667 8 5 C4.37 4.01 0.74 3.02 -3 2 C-2.01 1.34 -1.02 0.68 0 0 Z " fill="#E6E6E6" transform="translate(295,417)"/>
<path d="M0 0 C2.8125 -0.1875 2.8125 -0.1875 6 0 C6.99 0.99 7.98 1.98 9 3 C6.03 2.67 3.06 2.34 0 2 C0 1.34 0 0.68 0 0 Z " fill="#7E807F" transform="translate(241,602)"/>
<path d="M0 0 C0 0.99 0 1.98 0 3 C-2 5 -2 5 -5.625 5.125 C-6.73875 5.08375 -7.8525 5.0425 -9 5 C-6.08596738 3.05731159 -3.14191424 1.53604696 0 0 Z " fill="#E5E6E5" transform="translate(853,539)"/>
<path d="M0 0 C0.66 0.33 1.32 0.66 2 1 C1.01 2.98 0.02 4.96 -1 7 C-1.99 7 -2.98 7 -4 7 C-2.79618552 4.50638429 -1.54571278 2.31856917 0 0 Z " fill="#F0F0F0" transform="translate(697,491)"/>
<path d="M0 0 C1.32 0.66 2.64 1.32 4 2 C-0.455 3.485 -0.455 3.485 -5 5 C-3 1 -3 1 0 0 Z " fill="#E8E8E8" transform="translate(492,481)"/>
</svg>
