<?xml version="1.0" encoding="UTF-8"?>
<svg version="1.1" xmlns="http://www.w3.org/2000/svg" width="2000" height="2000">
<path d="M0 0 C660 0 1320 0 2000 0 C2000 660 2000 1320 2000 2000 C1340 2000 680 2000 0 2000 C0 1340 0 680 0 0 Z " fill="#FEC302" transform="translate(0,0)"/>
<path d="M0 0 C2.9597482 0.18530627 5.91970858 0.36685506 8.87976265 0.54720116 C18.00524475 1.10347564 27.12953742 1.67749048 36.25323486 2.26226807 C36.94349762 2.306353 37.63376038 2.35043793 38.34494019 2.39585876 C42.93074426 2.6892425 47.5159218 2.99121619 52.10089111 3.29742432 C53.27986465 3.37342361 54.4588382 3.44942291 55.67353821 3.52772522 C56.7543718 3.60133774 57.83520538 3.67495026 58.9487915 3.75079346 C60.3652169 3.84500328 60.3652169 3.84500328 61.81025696 3.94111633 C64.19073486 4.19976807 64.19073486 4.19976807 67.19073486 5.19976807 C69.13200128 5.43959273 71.07850543 5.63790147 73.02667236 5.81304932 C74.81585083 5.97970093 74.81585083 5.97970093 76.64117432 6.14971924 C78.58383179 6.32918091 78.58383179 6.32918091 80.56573486 6.51226807 C134.59766817 11.71531915 188.62667498 21.27287517 241.27178955 34.47857666 C244.57459145 35.29460851 247.88764712 36.05320417 251.206604 36.80010986 C260.53165631 38.9058386 269.63301352 41.65035624 278.76690674 44.46051025 C282.4820765 45.59362206 286.21146999 46.67666344 289.94073486 47.76226807 C297.19352129 49.88778263 304.41767095 52.09735825 311.62091064 54.38531494 C313.55596167 54.99858971 315.49200551 55.60873323 317.42852783 56.21734619 C321.10110515 57.37240264 324.77106962 58.5354958 328.44073486 59.69976807 C330.19897583 60.25132568 330.19897583 60.25132568 331.99273682 60.81402588 C338.51499455 62.89386615 344.83789685 65.20621596 351.13067627 67.90045166 C354.39255108 69.28546026 357.67792936 70.59453582 360.97589111 71.89117432 C377.91550032 78.56653371 394.64370863 85.591205 411.19073486 93.19976807 C412.19717041 93.66238037 413.20360596 94.12499268 414.24053955 94.60162354 C449.48907589 110.90624207 483.27957357 130.6467504 514.19073486 154.19976807 C515.06520264 154.86589111 515.06520264 154.86589111 515.95733643 155.54547119 C552.50902581 183.53822504 584.66594888 216.14020535 606.19073486 257.19976807 C606.52444092 257.82480225 606.85814697 258.44983643 607.20196533 259.09381104 C612.04515137 268.18253445 615.83714107 277.48521304 619.19073486 287.19976807 C619.5606958 288.26711182 619.93065674 289.33445557 620.31182861 290.43414307 C624.94544675 304.6415014 628.28070266 319.85701801 628.42901611 334.82476807 C628.4389006 335.64045258 628.4487851 336.45613708 628.45896912 337.29653931 C628.62825719 354.90437843 628.74205287 372.06021492 624.19073486 389.19976807 C623.78008789 390.75558594 623.78008789 390.75558594 623.36114502 392.34283447 C619.31104772 407.24148506 614.15095879 421.41880365 607.19073486 435.19976807 C606.77452881 436.02670166 606.35832275 436.85363525 605.92950439 437.70562744 C593.69504388 461.66804089 576.82038216 482.88055949 558.19073486 502.19976807 C557.62709229 502.78532471 557.06344971 503.37088135 556.48272705 503.97418213 C549.862873 510.81335768 543.16348049 517.29511753 535.68292236 523.20367432 C533.36462834 525.06048975 531.18539926 526.99891262 529.00323486 529.01226807 C522.44320589 534.88847777 515.31012398 540.02950002 508.19073486 545.19976807 C507.41230225 545.76534424 506.63386963 546.33092041 505.83184814 546.91363525 C494.39895369 555.17264926 482.69490589 562.74286085 470.50909424 569.83990479 C468.38424839 571.08626024 466.27701146 572.35662057 464.17510986 573.64117432 C425.74018565 596.99452667 383.80856057 614.66542162 341.63946533 629.94830322 C338.09208632 631.23556535 334.54968166 632.53597571 331.00714111 633.83648682 C317.9904648 638.58432589 304.97819361 642.88237439 291.6116333 646.52301025 C288.45640894 647.40504756 285.32991326 648.36995867 282.20050049 649.33892822 C247.48081543 660.0519842 211.79502326 667.68520856 176.0479126 674.03009033 C174.87724998 674.23893356 174.87724998 674.23893356 173.68293762 674.45199585 C172.21980202 674.71218249 170.75614911 674.96948227 169.29191589 675.22341919 C165.63208455 675.85722816 165.63208455 675.85722816 162.19073486 677.19976807 C160.21881355 677.53732399 158.23924783 677.83068846 156.25714111 678.10211182 C154.44633057 678.3544458 154.44633057 678.3544458 152.59893799 678.61187744 C151.32985596 678.78525635 150.06077393 678.95863525 148.75323486 679.13726807 C141.05236057 680.19488161 133.39128553 681.3115086 125.75054932 682.74200439 C121.51930511 683.49866466 117.26842741 684.04831445 113.00323486 684.57476807 C111.51098389 684.76039307 111.51098389 684.76039307 109.98858643 684.94976807 C98.23159186 686.37190082 86.44516677 687.51888367 74.65875244 688.66607666 C73.86887939 688.7432341 73.07900635 688.82039154 72.26519775 688.89988708 C70.61808325 689.0605361 68.9708628 689.22010201 67.32354736 689.37867737 C62.51769927 689.84782372 57.72105439 690.36533054 52.92584229 690.93341064 C34.76352599 693.05569261 16.66520837 694.1159818 -1.59632111 694.79745865 C-4.03878438 694.88884016 -6.48112211 694.98316997 -8.92346191 695.07778931 C-58.4835533 696.97581006 -108.3310444 697.70669529 -157.8414917 694.33258057 C-159.70016798 694.20713145 -161.55939439 694.08991147 -163.41864014 693.97320557 C-171.22496583 693.48304093 -179.01646043 692.86969805 -186.80926514 692.19976807 C-187.58187683 692.13402588 -188.35448853 692.06828369 -189.1505127 692.00054932 C-254.12297253 686.46897213 -254.12297253 686.46897213 -277.59051514 681.96148682 C-281.85876113 681.15755062 -286.15065997 680.57224371 -290.45184326 679.97418213 C-349.22260425 671.73512761 -407.45848253 657.70212642 -463.80926514 639.19976807 C-464.93300537 638.83302979 -466.05674561 638.4662915 -467.21453857 638.08843994 C-475.80835401 635.27979452 -484.36011286 632.42134295 -492.80926514 629.19976807 C-493.81529785 628.81981689 -494.82133057 628.43986572 -495.85784912 628.04840088 C-563.30192135 602.51590011 -630.6298499 570.68864095 -684.80926514 522.19976807 C-685.75285889 521.36703369 -686.69645264 520.53429932 -687.66864014 519.67633057 C-700.88840033 507.80776133 -714.05067764 495.37532981 -724.80926514 481.19976807 C-725.80635558 479.94068092 -726.80519933 478.68298115 -727.80535889 477.42633057 C-739.21176188 462.97050579 -749.09068652 447.75198101 -756.91668701 431.06890869 C-757.77725186 429.2668068 -758.69082311 427.49031217 -759.60614014 425.71539307 C-777.44086064 390.20378144 -782.15576824 342.63487349 -771.80926514 304.19976807 C-771.50112638 302.88576952 -771.19759005 301.57068149 -770.89910889 300.25445557 C-768.47745962 290.21142526 -764.81770168 280.69856056 -760.80926514 271.19976807 C-760.51568115 270.50125732 -760.22209717 269.80274658 -759.9196167 269.08306885 C-750.24413715 246.45527608 -735.89074628 224.39476353 -718.96942139 206.50054932 C-717.12659405 204.53775492 -715.36929817 202.53677546 -713.61395264 200.49664307 C-709.56008584 195.8459675 -705.24385293 191.48721871 -700.87176514 187.13726807 C-700.11186279 186.37349854 -699.35196045 185.609729 -698.56903076 184.82281494 C-693.81281534 180.07472286 -688.93195881 175.54895873 -683.80926514 171.19976807 C-683.17287109 170.65666992 -682.53647705 170.11357178 -681.88079834 169.55401611 C-671.24653574 160.54013605 -660.25614396 152.15297195 -648.80926514 144.19976807 C-648.11848877 143.71862549 -647.4277124 143.23748291 -646.71600342 142.74176025 C-622.80444138 126.19588925 -597.72596665 112.08685286 -571.72277832 99.15423584 C-569.91745099 98.25373159 -568.11638768 97.34469342 -566.31561279 96.43511963 C-540.50351364 83.40873838 -513.53786885 72.58155862 -486.24920654 63.05279541 C-483.69644136 62.16032377 -481.14914431 61.25333437 -478.60223389 60.34429932 C-463.24407666 54.88336463 -447.77187548 50.13529251 -432.06463623 45.7835083 C-426.268713 44.17701537 -420.49951522 42.5164434 -414.74676514 40.76226807 C-370.58669246 27.60270927 -324.04230907 18.40338772 -278.32489014 12.80523682 C-275.15569782 12.40895867 -272.0422962 11.87734368 -268.90692139 11.27008057 C-260.65967688 9.73791882 -252.32635533 8.84441624 -243.99676514 7.88726807 C-243.0745517 7.78127289 -242.15233826 7.67527771 -241.20217896 7.56607056 C-234.07391271 6.75212675 -226.94254531 5.96844638 -219.80926514 5.19976807 C-218.75823608 5.08637085 -217.70720703 4.97297363 -216.62432861 4.85614014 C-144.93677078 -2.82359557 -71.99692854 -4.52079745 0 0 Z " fill="#FEC302" transform="translate(1073.8092651367188,652.8002319335938)"/>
<path d="M0 0 C2.9597482 0.18530627 5.91970858 0.36685506 8.87976265 0.54720116 C18.00524475 1.10347564 27.12953742 1.67749048 36.25323486 2.26226807 C36.94349762 2.306353 37.63376038 2.35043793 38.34494019 2.39585876 C42.93074426 2.6892425 47.5159218 2.99121619 52.10089111 3.29742432 C53.27986465 3.37342361 54.4588382 3.44942291 55.67353821 3.52772522 C56.7543718 3.60133774 57.83520538 3.67495026 58.9487915 3.75079346 C60.3652169 3.84500328 60.3652169 3.84500328 61.81025696 3.94111633 C64.19073486 4.19976807 64.19073486 4.19976807 67.19073486 5.19976807 C69.13200128 5.43959273 71.07850543 5.63790147 73.02667236 5.81304932 C74.81585083 5.97970093 74.81585083 5.97970093 76.64117432 6.14971924 C78.58383179 6.32918091 78.58383179 6.32918091 80.56573486 6.51226807 C134.59766817 11.71531915 188.62667498 21.27287517 241.27178955 34.47857666 C244.57459145 35.29460851 247.88764712 36.05320417 251.206604 36.80010986 C260.53165631 38.9058386 269.63301352 41.65035624 278.76690674 44.46051025 C282.4820765 45.59362206 286.21146999 46.67666344 289.94073486 47.76226807 C297.19352129 49.88778263 304.41767095 52.09735825 311.62091064 54.38531494 C313.55596167 54.99858971 315.49200551 55.60873323 317.42852783 56.21734619 C321.10110515 57.37240264 324.77106962 58.5354958 328.44073486 59.69976807 C330.19897583 60.25132568 330.19897583 60.25132568 331.99273682 60.81402588 C338.51499455 62.89386615 344.83789685 65.20621596 351.13067627 67.90045166 C354.39255108 69.28546026 357.67792936 70.59453582 360.97589111 71.89117432 C377.91550032 78.56653371 394.64370863 85.591205 411.19073486 93.19976807 C412.19717041 93.66238037 413.20360596 94.12499268 414.24053955 94.60162354 C449.48907589 110.90624207 483.27957357 130.6467504 514.19073486 154.19976807 C515.06520264 154.86589111 515.06520264 154.86589111 515.95733643 155.54547119 C552.50902581 183.53822504 584.66594888 216.14020535 606.19073486 257.19976807 C606.52444092 257.82480225 606.85814697 258.44983643 607.20196533 259.09381104 C612.04515137 268.18253445 615.83714107 277.48521304 619.19073486 287.19976807 C619.5606958 288.26711182 619.93065674 289.33445557 620.31182861 290.43414307 C624.94544675 304.6415014 628.28070266 319.85701801 628.42901611 334.82476807 C628.4389006 335.64045258 628.4487851 336.45613708 628.45896912 337.29653931 C628.62825719 354.90437843 628.74205287 372.06021492 624.19073486 389.19976807 C623.78008789 390.75558594 623.78008789 390.75558594 623.36114502 392.34283447 C619.31104772 407.24148506 614.15095879 421.41880365 607.19073486 435.19976807 C606.77452881 436.02670166 606.35832275 436.85363525 605.92950439 437.70562744 C593.69504388 461.66804089 576.82038216 482.88055949 558.19073486 502.19976807 C557.62709229 502.78532471 557.06344971 503.37088135 556.48272705 503.97418213 C549.862873 510.81335768 543.16348049 517.29511753 535.68292236 523.20367432 C533.36462834 525.06048975 531.18539926 526.99891262 529.00323486 529.01226807 C522.44320589 534.88847777 515.31012398 540.02950002 508.19073486 545.19976807 C507.41230225 545.76534424 506.63386963 546.33092041 505.83184814 546.91363525 C494.39895369 555.17264926 482.69490589 562.74286085 470.50909424 569.83990479 C468.38424839 571.08626024 466.27701146 572.35662057 464.17510986 573.64117432 C425.74018565 596.99452667 383.80856057 614.66542162 341.63946533 629.94830322 C338.09208632 631.23556535 334.54968166 632.53597571 331.00714111 633.83648682 C317.9904648 638.58432589 304.97819361 642.88237439 291.6116333 646.52301025 C288.45640894 647.40504756 285.32991326 648.36995867 282.20050049 649.33892822 C247.48081543 660.0519842 211.79502326 667.68520856 176.0479126 674.03009033 C174.87724998 674.23893356 174.87724998 674.23893356 173.68293762 674.45199585 C172.21980202 674.71218249 170.75614911 674.96948227 169.29191589 675.22341919 C165.63208455 675.85722816 165.63208455 675.85722816 162.19073486 677.19976807 C160.21881355 677.53732399 158.23924783 677.83068846 156.25714111 678.10211182 C154.44633057 678.3544458 154.44633057 678.3544458 152.59893799 678.61187744 C151.32985596 678.78525635 150.06077393 678.95863525 148.75323486 679.13726807 C141.05236057 680.19488161 133.39128553 681.3115086 125.75054932 682.74200439 C121.51930511 683.49866466 117.26842741 684.04831445 113.00323486 684.57476807 C111.51098389 684.76039307 111.51098389 684.76039307 109.98858643 684.94976807 C98.23159186 686.37190082 86.44516677 687.51888367 74.65875244 688.66607666 C73.86887939 688.7432341 73.07900635 688.82039154 72.26519775 688.89988708 C70.61808325 689.0605361 68.9708628 689.22010201 67.32354736 689.37867737 C62.51769927 689.84782372 57.72105439 690.36533054 52.92584229 690.93341064 C34.76352599 693.05569261 16.66520837 694.1159818 -1.59632111 694.79745865 C-4.03878438 694.88884016 -6.48112211 694.98316997 -8.92346191 695.07778931 C-58.4835533 696.97581006 -108.3310444 697.70669529 -157.8414917 694.33258057 C-159.70016798 694.20713145 -161.55939439 694.08991147 -163.41864014 693.97320557 C-171.22496583 693.48304093 -179.01646043 692.86969805 -186.80926514 692.19976807 C-187.58187683 692.13402588 -188.35448853 692.06828369 -189.1505127 692.00054932 C-254.12297253 686.46897213 -254.12297253 686.46897213 -277.59051514 681.96148682 C-281.85876113 681.15755062 -286.15065997 680.57224371 -290.45184326 679.97418213 C-349.22260425 671.73512761 -407.45848253 657.70212642 -463.80926514 639.19976807 C-464.93300537 638.83302979 -466.05674561 638.4662915 -467.21453857 638.08843994 C-475.80835401 635.27979452 -484.36011286 632.42134295 -492.80926514 629.19976807 C-493.81529785 628.81981689 -494.82133057 628.43986572 -495.85784912 628.04840088 C-563.30192135 602.51590011 -630.6298499 570.68864095 -684.80926514 522.19976807 C-685.75285889 521.36703369 -686.69645264 520.53429932 -687.66864014 519.67633057 C-700.88840033 507.80776133 -714.05067764 495.37532981 -724.80926514 481.19976807 C-725.80635558 479.94068092 -726.80519933 478.68298115 -727.80535889 477.42633057 C-739.21176188 462.97050579 -749.09068652 447.75198101 -756.91668701 431.06890869 C-757.77725186 429.2668068 -758.69082311 427.49031217 -759.60614014 425.71539307 C-777.44086064 390.20378144 -782.15576824 342.63487349 -771.80926514 304.19976807 C-771.50112638 302.88576952 -771.19759005 301.57068149 -770.89910889 300.25445557 C-768.47745962 290.21142526 -764.81770168 280.69856056 -760.80926514 271.19976807 C-760.51568115 270.50125732 -760.22209717 269.80274658 -759.9196167 269.08306885 C-750.24413715 246.45527608 -735.89074628 224.39476353 -718.96942139 206.50054932 C-717.12659405 204.53775492 -715.36929817 202.53677546 -713.61395264 200.49664307 C-709.56008584 195.8459675 -705.24385293 191.48721871 -700.87176514 187.13726807 C-700.11186279 186.37349854 -699.35196045 185.609729 -698.56903076 184.82281494 C-693.81281534 180.07472286 -688.93195881 175.54895873 -683.80926514 171.19976807 C-683.17287109 170.65666992 -682.53647705 170.11357178 -681.88079834 169.55401611 C-671.24653574 160.54013605 -660.25614396 152.15297195 -648.80926514 144.19976807 C-648.11848877 143.71862549 -647.4277124 143.23748291 -646.71600342 142.74176025 C-622.80444138 126.19588925 -597.72596665 112.08685286 -571.72277832 99.15423584 C-569.91745099 98.25373159 -568.11638768 97.34469342 -566.31561279 96.43511963 C-540.50351364 83.40873838 -513.53786885 72.58155862 -486.24920654 63.05279541 C-483.69644136 62.16032377 -481.14914431 61.25333437 -478.60223389 60.34429932 C-463.24407666 54.88336463 -447.77187548 50.13529251 -432.06463623 45.7835083 C-426.268713 44.17701537 -420.49951522 42.5164434 -414.74676514 40.76226807 C-370.58669246 27.60270927 -324.04230907 18.40338772 -278.32489014 12.80523682 C-275.15569782 12.40895867 -272.0422962 11.87734368 -268.90692139 11.27008057 C-260.65967688 9.73791882 -252.32635533 8.84441624 -243.99676514 7.88726807 C-243.0745517 7.78127289 -242.15233826 7.67527771 -241.20217896 7.56607056 C-234.07391271 6.75212675 -226.94254531 5.96844638 -219.80926514 5.19976807 C-218.75823608 5.08637085 -217.70720703 4.97297363 -216.62432861 4.85614014 C-144.93677078 -2.82359557 -71.99692854 -4.52079745 0 0 Z M-196.49676514 54.57476807 C-198.88183346 54.79490484 -201.26692505 55.01478953 -203.65203857 55.23443604 C-227.34567596 57.4424214 -250.98053388 60.07025705 -274.4833374 63.83453369 C-276.13072591 64.09321882 -277.77987315 64.3408159 -279.43011475 64.58062744 C-290.63185281 66.22996311 -301.74616612 68.35629668 -312.87176514 70.44976807 C-313.93995483 70.65051941 -315.00814453 70.85127075 -316.10870361 71.05810547 C-347.54625736 76.97729291 -378.84781403 83.42057793 -409.44207764 92.87554932 C-413.26799889 94.05281959 -417.11742868 95.08549407 -420.99676514 96.07476807 C-437.68276515 100.4658207 -453.99386491 106.18656778 -470.24676514 111.94976807 C-470.90257568 112.18197052 -471.55838623 112.41417297 -472.23406982 112.65341187 C-479.82666391 115.34734651 -487.35622743 118.14160567 -494.80926514 121.19976807 C-495.84639648 121.61903564 -496.88352783 122.03830322 -497.9520874 122.47027588 C-518.66842599 130.87334164 -538.82523661 140.18563534 -558.80926514 150.19976807 C-559.76252686 150.67510986 -560.71578857 151.15045166 -561.69793701 151.64019775 C-608.18233598 174.95407711 -657.42253741 207.95323255 -688.80926514 250.19976807 C-689.57754639 251.20136963 -690.34582764 252.20297119 -691.13739014 253.23492432 C-701.20337212 266.62363826 -709.99608393 281.46974344 -715.80926514 297.19976807 C-716.13056396 298.03870605 -716.45186279 298.87764404 -716.78289795 299.74200439 C-725.40767218 322.65612916 -727.97905779 348.1466275 -722.80926514 372.19976807 C-722.66392334 372.9222876 -722.51858154 373.64480713 -722.36883545 374.38922119 C-719.60546402 387.88065136 -714.92493753 399.89230548 -708.80926514 412.19976807 C-708.46991943 412.89473389 -708.13057373 413.58969971 -707.78094482 414.3057251 C-703.033228 423.95973153 -697.32605809 432.65183652 -690.80926514 441.19976807 C-690.12864014 442.09437744 -689.44801514 442.98898682 -688.74676514 443.91070557 C-684.46700737 449.38120239 -679.87131134 454.52371123 -675.16082764 459.62554932 C-673.25232287 461.71475969 -671.43000217 463.83774712 -669.62176514 466.01226807 C-660.4423251 476.52768295 -649.55783084 485.52484835 -638.46502686 493.93365479 C-636.88854682 495.13914365 -635.33453264 496.37384542 -633.78192139 497.60992432 C-609.18250479 517.08050502 -581.61479897 532.66027046 -553.67352295 546.75006104 C-551.33107763 547.93565943 -549.00032944 549.13855173 -546.67645264 550.35992432 C-504.52670004 572.33646064 -457.80211406 589.12028655 -411.93182373 601.36578369 C-409.56058839 601.9991019 -407.19147588 602.638724 -404.82342529 603.28375244 C-386.96383 608.14301352 -369.06418165 612.73717318 -350.99676514 616.76226807 C-350.23959198 616.93216248 -349.48241882 617.10205688 -348.70230103 617.27709961 C-341.08695731 618.97805518 -333.5879082 620.45593038 -325.80926514 621.19976807 C-323.92517262 621.5962862 -322.04861551 622.03140536 -320.18426514 622.51226807 C-310.16043064 624.92082194 -299.97151653 626.4944455 -289.80926514 628.19976807 C-287.9646167 628.51107666 -287.9646167 628.51107666 -286.08270264 628.82867432 C-284.19129177 629.14557297 -282.29940601 629.45965863 -280.40692139 629.77008057 C-278.60080135 630.06883726 -276.79619148 630.37681006 -274.99285889 630.69195557 C-268.16297135 631.87422638 -261.31932889 632.80670087 -254.43817139 633.63336182 C-251.08800038 634.03684689 -247.74337439 634.47265198 -244.39910889 634.92242432 C-232.38321299 636.51686459 -220.40270448 637.67722365 -208.30926514 638.50054932 C-202.50141319 638.90247679 -196.76213543 639.39399042 -190.99676514 640.19976807 C-183.55799049 641.19841963 -176.108939 641.75150619 -168.62176514 642.26226807 C-167.49601074 642.34154541 -166.37025635 642.42082275 -165.21038818 642.50250244 C-161.07801266 642.77160577 -156.94532923 642.99617347 -152.80926514 643.19976807 C-151.91496796 643.24460327 -151.02067078 643.28943848 -150.09927368 643.33563232 C-126.6042821 644.45598262 -103.09606335 644.35389482 -79.58050537 644.33013916 C-73.88730887 644.32443894 -68.19415908 644.327831 -62.50096416 644.33357811 C-28.14303369 644.36451366 -28.14303369 644.36451366 6.19073486 643.19976807 C7.35607254 643.14305939 7.35607254 643.14305939 8.54495239 643.08520508 C12.82604743 642.87455367 17.10207603 642.61832516 21.37823486 642.32476807 C22.61903809 642.24089844 23.85984131 642.15702881 25.13824463 642.07061768 C34.0148721 641.43547821 42.82720546 640.50723843 51.65289307 639.37384033 C59.94276889 638.31414301 68.24331733 637.51978398 76.56573486 636.76226807 C87.84249648 635.72259643 99.01532966 634.33274062 110.20001221 632.55743408 C114.95374949 631.80532681 119.65571472 631.12932467 124.45635986 630.77008057 C130.99336072 630.21936979 137.37350696 628.92206399 143.80200195 627.66174316 C148.29675149 626.79246961 152.80132167 625.97590929 157.30401611 625.14898682 C189.36609601 619.24775802 189.36609601 619.24775802 221.19073486 612.19976807 C222.47319092 611.89184326 223.75564697 611.58391846 225.07696533 611.2666626 C240.42003035 607.56778099 255.68368899 603.69089589 270.74639893 598.96051025 C273.41795974 598.12904966 276.09629119 597.32263922 278.77667236 596.52008057 C290.87486662 592.89173808 302.87981042 589.04032002 314.84259033 584.98883057 C317.02879128 584.25418704 319.21928834 583.53540864 321.41339111 582.82476807 C322.06759033 582.61158936 322.72178955 582.39841064 323.39581299 582.17877197 C325.08830264 581.62840139 326.78203199 581.08184681 328.47589111 580.53570557 C332.67262532 579.02646992 336.76390229 577.32778645 340.87310791 575.59625244 C344.27117624 574.16590798 347.67903895 572.76123861 351.08917236 571.35992432 C398.61548233 551.72134688 445.62264776 529.2511574 486.19073486 497.19976807 C486.99510986 496.57457275 487.79948486 495.94937744 488.62823486 495.30523682 C491.17563624 493.30079118 493.68675262 491.25818876 496.19073486 489.19976807 C497.19104736 488.38636963 498.19135986 487.57297119 499.22198486 486.73492432 C513.74817718 474.72608585 527.87045903 461.30925756 539.19073486 446.19976807 C539.93065674 445.25359619 540.67057861 444.30742432 541.43292236 443.33258057 C546.89154239 436.25659164 551.70836736 428.92829458 556.19073486 421.19976807 C556.52460205 420.62919678 556.85846924 420.05862549 557.20245361 419.47076416 C565.01502084 405.98959571 570.61988318 391.36955642 574.19073486 376.19976807 C574.38280518 375.43793213 574.57487549 374.67609619 574.77276611 373.89117432 C583.49383982 337.68930718 572.41957205 300.47872645 554.19073486 269.19976807 C539.29609074 245.0487667 518.6300328 222.53922557 496.19073486 205.19976807 C495.12672246 204.34748609 494.06430277 203.49321306 493.00323486 202.63726807 C449.39910581 167.62316501 398.21868022 141.06719314 346.03106689 121.28448486 C343.42380156 120.28877575 340.83765413 119.25303786 338.25323486 118.19976807 C325.59527427 113.123765 312.59418231 108.96775955 299.62823486 104.76226807 C298.74167206 104.47430359 297.85510925 104.18633911 296.94168091 103.88964844 C284.89477153 99.98183041 272.84056086 96.18792252 260.61553955 92.87115479 C257.99861825 92.14657428 255.39581082 91.38125074 252.79229736 90.60992432 C218.36479028 80.50638876 183.00039513 73.96619373 147.71917725 67.65423584 C145.48953675 67.25347537 143.26123151 66.84637679 141.0335083 66.43511963 C112.01408578 61.12126463 82.50477014 58.37882853 53.19073486 55.19976807 C52.25916565 55.09720703 51.32759644 54.994646 50.36779785 54.88897705 C9.15941372 50.37443044 -32.34016627 49.90151373 -73.75117493 49.88880157 C-76.81355619 49.88729667 -79.87591697 49.8824039 -82.93829346 49.87695312 C-120.88013181 49.8265202 -158.71239825 50.97761404 -196.49676514 54.57476807 Z " fill="#010100" transform="translate(1073.8092651367188,652.8002319335938)"/>
<path d="M0 0 C19.14 0 38.28 0 58 0 C62.98226393 6.22782992 67.82584147 12.39344013 72.4375 18.875 C76.07745274 23.95419843 79.73046537 29.01560614 83.5 34 C87.17653351 38.86619792 90.75290565 43.79815547 94.3125 48.75 C99.01874204 55.29602351 103.80655864 61.77188756 108.66430664 68.20605469 C113.56669845 74.71628641 118.2988808 81.34354804 123 88 C125.95279632 84.40779742 128.60806556 80.71052449 131.18359375 76.83984375 C131.58777023 76.23353119 131.99194672 75.62721863 132.40837097 75.00253296 C133.75383685 72.98245586 135.0957452 70.96004359 136.4375 68.9375 C137.39036612 67.5047375 138.34333085 66.07204058 139.29638672 64.6394043 C150.81464063 47.31089857 162.25187878 29.92848925 173.68730164 12.54525757 C174.19735245 11.77017853 174.70740326 10.99509949 175.23291016 10.1965332 C175.67285309 9.52773636 176.11279602 8.85893951 176.56607056 8.1698761 C178.36926982 5.44120698 180.18576884 2.72134673 182 0 C201.14 0 220.28 0 240 0 C240 75.57 240 151.14 240 229 C219.21 229 198.42 229 177 229 C176.67 187.42 176.34 145.84 176 103 C172.7 107.95 169.4 112.9 166 118 C163.57446155 121.61395677 161.14726173 125.2266276 158.71484375 128.8359375 C158.0876796 129.76677155 157.46051544 130.69760559 156.81434631 131.65664673 C155.51324481 133.58732265 154.21192979 135.5178547 152.91040039 137.44824219 C150.90858649 140.41789261 148.90839602 143.38863259 146.90820312 146.359375 C145.63551569 148.24746259 144.36273292 150.13548591 143.08984375 152.0234375 C142.49203598 152.91179291 141.89422821 153.80014832 141.27830505 154.71542358 C140.73005569 155.52782501 140.18180634 156.34022644 139.61694336 157.17724609 C138.89274452 158.25188614 138.89274452 158.25188614 138.15391541 159.34823608 C137 161 137 161 136 162 C131.46629922 162.48589937 126.92969636 162.65679323 122.37475586 162.78955078 C120.84820315 162.84596441 119.32234736 162.92752027 117.79858398 163.03564453 C105.58990161 163.88533793 105.58990161 163.88533793 101.39123535 160.82888794 C98.38673002 157.80226642 96.16270383 154.31752566 94.00082397 150.66027832 C92.61661082 148.36399131 91.01228986 146.26361552 89.3828125 144.13671875 C88.29561869 142.65456655 87.20968106 141.17149209 86.125 139.6875 C81.65825565 133.59949288 77.16517694 127.53344565 72.625 121.5 C70.74866278 119.00100093 68.8739011 116.50082619 67 114 C66.57364258 113.4318457 66.14728516 112.86369141 65.70800781 112.27832031 C64.55012105 110.73110446 63.39979823 109.1782362 62.25 107.625 C61.61578125 106.77164063 60.9815625 105.91828125 60.328125 105.0390625 C59 103 59 103 59 101 C58.34 101 57.68 101 57 101 C57 142.91 57 184.82 57 228 C38.19 228 19.38 228 0 228 C0 152.76 0 77.52 0 0 Z " fill="#010100" transform="translate(649,882)"/>
<path d="M0 0 C19.14 0 38.28 0 58 0 C61.63 4.62 65.26 9.24 69 14 C73.22003395 19.00884834 73.22003395 19.00884834 77.4609375 24 C80.27837279 27.32890816 82.99864345 30.7230305 85.70703125 34.140625 C88.76792073 37.95761154 91.88449697 41.72754731 95 45.5 C99.31506381 50.72661752 103.59616772 55.97448695 107.8125 61.28125 C110.8427976 65.04747702 113.92254834 68.77226907 117 72.5 C121.43232324 77.86915653 125.83303643 83.25870579 130.16796875 88.70703125 C134.90553996 94.63657134 139.74662976 100.48288267 144.578125 106.3359375 C145.20444824 107.09511475 145.83077148 107.85429199 146.47607422 108.63647461 C147.72164753 110.14579944 148.96803908 111.65444947 150.21533203 113.16235352 C150.79138184 113.86030029 151.36743164 114.55824707 151.9609375 115.27734375 C152.47446777 115.89859131 152.98799805 116.51983887 153.51708984 117.15991211 C158 122.72258808 158 122.72258808 158 125 C158.66 125 159.32 125 160 125 C160 83.75 160 42.5 160 0 C178.81 0 197.62 0 217 0 C217 75.24 217 150.48 217 228 C199.51 228 182.02 228 164 228 C157.26743165 220.04332831 150.57472192 212.08290186 144 204 C142.50056908 202.16620121 141.00056542 200.33287057 139.5 198.5 C137.30774854 195.8210008 135.11580532 193.14175792 132.92578125 190.4609375 C125.97414522 181.95449933 118.98636418 173.47791795 112 165 C105.11708947 156.64762255 98.23541508 148.29453749 91.38671875 139.9140625 C88.36850983 136.22898254 85.34073249 132.5518438 82.3125 128.875 C81.72436523 128.15997314 81.13623047 127.44494629 80.53027344 126.70825195 C77.38451189 122.88566732 74.22917409 119.07156397 71.05859375 115.26953125 C70.42074951 114.50205566 69.78290527 113.73458008 69.12573242 112.94384766 C67.90119554 111.47083323 66.6736247 110.00033421 65.44262695 108.53271484 C64.88921631 107.86578613 64.33580566 107.19885742 63.765625 106.51171875 C63.27868164 105.92865967 62.79173828 105.34560059 62.29003906 104.74487305 C60.93564859 102.91295997 59.95829069 101.06281404 59 99 C58.34 99 57.68 99 57 99 C57 141.57 57 184.14 57 228 C38.19 228 19.38 228 0 228 C0 152.76 0 77.52 0 0 Z " fill="#000000" transform="translate(1138,882)"/>
<path d="M0 0 C70.29 0 140.58 0 213 0 C213 17.16 213 34.32 213 52 C188.58 52 164.16 52 139 52 C139 110.41 139 168.82 139 229 C117.88 229 96.76 229 75 229 C75 170.59 75 112.18 75 52 C50.25 52 25.5 52 0 52 C0 34.84 0 17.68 0 0 Z " fill="#020100" transform="translate(907,882)"/>
</svg>
