<svg xmlns="http://www.w3.org/2000/svg" width="1576" height="1581"><path fill="#e60000" d="M497.6 55.8c198.2-79 429-73.5 621.8 18.2-54.9-8.3-110.8-2-165.2 7.2C806.4 109 666 178.5 556.3 281.8c-105.2 103.4-179 240.6-199.8 387.4-13.8 104-1 213.1 45.7 307.8 48.1 99.3 132.8 180.8 234.8 222.9 98.4 41.6 212.5 41.1 312.1 4 149.5-54.9 256.8-203 269.1-361.2 7.8-103.7-17.5-214-87.1-293.5-66.6-77.8-163.9-120.7-261.2-145.1-5.2-96 40-190.9 111.7-253.3 39.9-35.9 89.3-58.8 140.4-73.4l3.9-1.4c146.4 70.2 270.7 185.9 350 328 67.9 120.9 103.3 260.3 99.8 399.2-.7 179.5-67.8 357.2-182.9 494.5-108.8 130.9-261 225.1-426.8 262.8-166.3 38.4-345.2 21.8-500.9-48.8-152.3-68-281.3-186.3-363.4-331.7C33.5 1059.2-2.7 919.9.3 780.9c.4-173.2 61.9-345.1 169.3-480.5 85.8-108.2 199.6-194.1 328-244.6"/><path fill="#fff" d="M954.2 81.2c54.4-9.2 110.3-15.5 165.2-7.2l7.9 1.3-5.3 2.1c-51.1 14.6-100.5 37.5-140.4 73.4-71.7 62.4-116.9 157.3-111.7 253.3 97.3 24.4 194.6 67.3 261.2 145.1 69.6 79.5 94.9 189.8 87.1 293.5-12.3 158.2-119.6 306.3-269.1 361.2-99.6 37.1-213.7 37.6-312.1-4-102-42.1-186.7-123.6-234.8-222.9-46.7-94.7-59.5-203.8-45.7-307.8 20.8-146.8 94.6-284 199.8-387.4C666 178.5 806.4 109 954.2 81.2"/></svg>